<svg xmlns="http://www.w3.org/2000/svg" viewBox="0 0 250 250" width="250" height="250" fill="#182026">
  <rect width="100%" height="100%" fill="#fff"/>
  <path d="M81.9 0 L99.1 0 Q103.4 0 103.4 4.3L103.4 12.9 Q103.4 17.2 99.1 17.2L99.1 17.2 Q94.8 17.2 94.8 12.9L94.8 8.6 L81.9 8.6 Q77.6 8.6 77.6 4.3L77.6 4.3 Q77.6 0 81.9 0Z"/>
  <path d="M116.4 0 L133.6 0 Q137.9 0 137.9 4.3L137.9 12.9 Q137.9 17.2 133.6 17.2L133.6 17.2 Q129.3 17.2 129.3 12.9L129.3 8.6 L116.4 8.6 Q112.1 8.6 112.1 4.3L112.1 4.3 Q112.1 0 116.4 0Z"/>
  <path d="M159.5 0 L159.5 0 Q163.8 0 163.8 4.3L163.8 4.3 Q163.8 8.6 159.5 8.6L159.5 8.6 Q155.2 8.6 155.2 4.3L155.2 4.3 Q155.2 0 159.5 0Z"/>
  <path d="M73.3 8.6 L73.3 8.6 Q77.6 8.6 77.6 12.9L77.6 25.9 L81.9 25.9 Q86.2 25.9 86.2 30.2L86.2 30.2 Q86.2 34.5 81.9 34.5L73.3 34.5 Q69 34.5 69 30.2L69 17.2 L69 12.9 Q69 8.6 73.3 8.6Z"/>
  <path d="M150.9 8.6 L150.9 8.6 Q155.2 8.6 155.2 12.9L155.2 12.9 Q155.2 17.2 150.9 17.2L150.9 17.2 Q146.6 17.2 146.6 12.9L146.6 12.9 Q146.6 8.6 150.9 8.6Z"/>
  <path d="M176.7 8.6 L176.7 8.6 Q181 8.6 181 12.9L181 12.9 Q181 17.2 176.7 17.2L176.7 17.2 Q172.4 17.2 172.4 12.9L172.4 12.9 Q172.4 8.6 176.7 8.6Z"/>
  <path d="M107.8 17.2 L107.8 17.2 Q112.1 17.2 112.1 21.6L112.1 21.6 Q112.1 25.9 107.8 25.9L107.8 25.9 Q103.4 25.9 103.4 21.6L103.4 21.6 Q103.4 17.2 107.8 17.2Z"/>
  <path d="M125 17.2 L125 17.2 Q129.3 17.2 129.3 21.6L129.3 25.9 L133.6 25.9 Q137.9 25.9 137.9 30.2L137.9 38.8 Q137.9 43.1 133.6 43.1L129.3 43.1 L129.3 56 Q129.3 60.3 125 60.3L125 60.3 Q120.7 60.3 120.7 56L120.7 51.7 L112.1 51.7 L112.1 56 Q112.1 60.3 107.8 60.3L107.8 60.3 Q103.4 60.3 103.4 56L103.4 43.1 L90.5 43.1 Q86.2 43.1 86.2 38.8L86.2 38.8 Q86.2 34.5 90.5 34.5L94.8 34.5 L94.8 30.2 Q94.8 25.9 99.1 25.9L99.1 25.9 Q103.4 25.9 103.4 30.2L103.4 34.5 L120.7 34.5 L120.7 25.9 L120.7 21.6 Q120.7 17.2 125 17.2Z"/>
  <path d="M142.2 17.2 L142.2 17.2 Q146.6 17.2 146.6 21.6L146.6 21.6 Q146.6 25.9 142.2 25.9L142.2 25.9 Q137.9 25.9 137.9 21.6L137.9 21.6 Q137.9 17.2 142.2 17.2Z"/>
  <path d="M159.5 17.2 L159.5 17.2 Q163.8 17.2 163.8 21.6L163.8 25.9 L176.7 25.9 Q181 25.9 181 30.2L181 38.8 Q181 43.1 176.7 43.1L155.2 43.1 L155.2 47.4 Q155.2 51.7 150.9 51.7L146.6 51.7 L146.6 56 Q146.6 60.3 142.2 60.3L142.2 60.3 Q137.9 60.3 137.9 56L137.9 47.4 Q137.9 43.1 142.2 43.1L146.6 43.1 L146.6 30.2 Q146.6 25.9 150.9 25.9L155.2 25.9 L155.2 21.6 Q155.2 17.2 159.5 17.2Z"/>
  <path d="M73.3 51.7 L73.3 51.7 Q77.6 51.7 77.6 56L77.6 60.3 L86.2 60.3 L86.2 56 Q86.2 51.7 90.5 51.7L90.5 51.7 Q94.8 51.7 94.8 56L94.8 60.3 L99.1 60.3 Q103.4 60.3 103.4 64.7L103.4 64.7 Q103.4 69 99.1 69L77.6 69 L77.6 81.9 Q77.6 86.2 73.3 86.2L69 86.2 L69 90.5 Q69 94.8 64.7 94.8L56 94.8 Q51.7 94.8 51.7 90.5L51.7 90.5 Q51.7 86.2 56 86.2L60.3 86.2 L60.3 81.9 Q60.3 77.6 64.7 77.6L69 77.6 L69 60.3 L69 56 Q69 51.7 73.3 51.7Z"/>
  <path d="M159.5 51.7 L159.5 51.7 Q163.8 51.7 163.8 56L163.8 56 Q163.8 60.3 159.5 60.3L159.5 60.3 Q155.2 60.3 155.2 56L155.2 56 Q155.2 51.7 159.5 51.7Z"/>
  <path d="M176.7 51.7 L176.7 51.7 Q181 51.7 181 56L181 69 L194 69 Q198.3 69 198.3 73.3L198.3 73.3 Q198.3 77.6 194 77.6L189.7 77.6 L189.7 81.9 Q189.7 86.2 185.3 86.2L185.3 86.2 Q181 86.2 181 81.9L181 77.6 L176.7 77.6 Q172.4 77.6 172.4 73.3L172.4 69 L168.1 69 Q163.8 69 163.8 64.7L163.8 64.7 Q163.8 60.3 168.1 60.3L172.4 60.3 L172.4 56 Q172.4 51.7 176.7 51.7Z"/>
  <path d="M116.4 60.3 L116.4 60.3 Q120.7 60.3 120.7 64.7L120.7 64.7 Q120.7 69 116.4 69L116.4 69 Q112.1 69 112.1 64.7L112.1 64.7 Q112.1 60.3 116.4 60.3Z"/>
  <path d="M4.3 69 L4.3 69 Q8.6 69 8.6 73.3L8.6 94.8 L12.9 94.8 Q17.2 94.8 17.2 99.1L17.2 116.4 Q17.2 120.7 12.9 120.7L4.3 120.7 Q0 120.7 0 116.4L0 77.6 L0 73.3 Q0 69 4.3 69Z"/>
  <path d="M56 69 L56 69 Q60.3 69 60.3 73.3L60.3 73.3 Q60.3 77.6 56 77.6L56 77.6 Q51.7 77.6 51.7 73.3L51.7 73.3 Q51.7 69 56 69Z"/>
  <path d="M125 69 L133.6 69 Q137.9 69 137.9 73.3L137.9 73.3 Q137.9 77.6 133.6 77.6L129.3 77.6 L129.3 81.9 Q129.3 86.2 125 86.2L125 86.2 Q120.7 86.2 120.7 81.9L120.7 77.6 L120.7 73.3 Q120.7 69 125 69Z"/>
  <path d="M150.9 69 L150.9 69 Q155.2 69 155.2 73.3L155.2 73.3 Q155.2 77.6 150.9 77.6L150.9 77.6 Q146.6 77.6 146.6 73.3L146.6 73.3 Q146.6 69 150.9 69Z"/>
  <path d="M219.8 69 L237.1 69 Q241.4 69 241.4 73.3L241.4 81.9 Q241.4 86.2 237.1 86.2L228.4 86.2 Q224.1 86.2 224.1 81.9L224.1 77.6 L219.8 77.6 Q215.5 77.6 215.5 73.3L215.5 73.3 Q215.5 69 219.8 69Z"/>
  <path d="M21.6 77.6 L21.6 77.6 Q25.9 77.6 25.9 81.9L25.9 81.9 Q25.9 86.2 21.6 86.2L21.6 86.2 Q17.2 86.2 17.2 81.9L17.2 81.9 Q17.2 77.6 21.6 77.6Z"/>
  <path d="M38.8 77.6 L47.4 77.6 Q51.7 77.6 51.7 81.9L51.7 81.9 Q51.7 86.2 47.4 86.2L38.8 86.2 Q34.5 86.2 34.5 81.9L34.5 81.9 Q34.5 77.6 38.8 77.6Z"/>
  <path d="M90.5 77.6 L107.8 77.6 Q112.1 77.6 112.1 81.9L112.1 81.9 Q112.1 86.2 107.8 86.2L103.4 86.2 L103.4 120.7 L112.1 120.7 L112.1 107.8 Q112.1 103.4 116.4 103.4L120.7 103.4 L120.7 99.1 Q120.7 94.8 125 94.8L142.2 94.8 Q146.6 94.8 146.6 99.1L146.6 99.1 Q146.6 103.4 142.2 103.4L129.3 103.4 L129.3 120.7 L142.2 120.7 Q146.6 120.7 146.6 125L146.6 133.6 Q146.6 137.9 142.2 137.9L142.2 137.9 Q137.9 137.9 137.9 133.6L137.9 129.3 L129.3 129.3 L129.3 137.9 L133.6 137.9 Q137.9 137.9 137.9 142.2L137.9 142.2 Q137.9 146.6 133.6 146.6L125 146.6 Q120.7 146.6 120.7 142.2L120.7 137.9 L116.4 137.9 Q112.1 137.9 112.1 133.6L112.1 129.3 L94.8 129.3 L94.8 155.2 L125 155.2 Q129.3 155.2 129.3 159.5L129.3 163.8 L137.9 163.8 L137.9 150.9 Q137.9 146.6 142.2 146.6L146.6 146.6 L146.6 142.2 Q146.6 137.9 150.9 137.9L150.9 137.9 Q155.2 137.9 155.2 142.2L155.2 155.2 L163.8 155.2 L163.8 133.6 Q163.8 129.3 168.1 129.3L168.1 129.3 Q172.4 129.3 172.4 133.6L172.4 159.5 Q172.4 163.8 168.1 163.8L163.8 163.8 L163.8 168.1 Q163.8 172.4 159.5 172.4L159.5 172.4 Q155.2 172.4 155.2 168.1L155.2 163.8 L146.6 163.8 L146.6 168.1 Q146.6 172.4 142.2 172.4L125 172.4 Q120.7 172.4 120.7 168.1L120.7 163.8 L86.2 163.8 L86.2 172.4 L90.5 172.4 Q94.8 172.4 94.8 176.7L94.8 176.7 Q94.8 181 90.5 181L86.2 181 L86.2 202.6 Q86.2 206.9 81.9 206.9L81.9 206.9 Q77.6 206.9 77.6 202.6L77.6 189.7 L73.3 189.7 Q69 189.7 69 185.3L69 185.3 Q69 181 73.3 181L77.6 181 L77.6 163.8 L73.3 163.8 Q69 163.8 69 159.5L69 159.5 Q69 155.2 73.3 155.2L86.2 155.2 L86.2 146.6 L69 146.6 L69 150.9 Q69 155.2 64.7 155.2L64.7 155.2 Q60.3 155.2 60.3 150.9L60.3 146.6 L56 146.6 Q51.7 146.6 51.7 142.2L51.7 142.2 Q51.7 137.9 56 137.9L60.3 137.9 L60.3 129.3 L51.7 129.3 L51.7 133.6 Q51.7 137.9 47.4 137.9L43.1 137.9 L43.1 142.2 Q43.1 146.6 38.8 146.6L30.2 146.6 Q25.9 146.6 25.9 142.2L25.9 142.2 Q25.9 137.9 30.2 137.9L34.5 137.9 L34.5 133.6 Q34.5 129.3 38.8 129.3L43.1 129.3 L43.1 125 Q43.1 120.7 47.4 120.7L60.3 120.7 L60.3 116.4 Q60.3 112.1 64.7 112.1L64.7 112.1 Q69 112.1 69 116.4L69 120.7 L77.6 120.7 L77.6 112.1 L73.3 112.1 Q69 112.1 69 107.8L69 99.1 Q69 94.8 73.3 94.8L73.3 94.8 Q77.6 94.8 77.6 99.1L77.6 103.4 L94.8 103.4 L94.8 94.8 L81.9 94.8 Q77.6 94.8 77.6 90.5L77.6 90.5 Q77.6 86.2 81.9 86.2L86.2 86.2 L86.2 81.9 Q86.2 77.6 90.5 77.6ZM86.2 116.4 L86.2 120.7 L94.8 120.7 L94.8 112.1 L86.2 112.1 ZM77.6 133.6 L77.6 137.9 L86.2 137.9 L86.2 129.3 L77.6 129.3 Z"/>
  <path d="M168.1 77.6 L168.1 77.6 Q172.4 77.6 172.4 81.9L172.4 81.9 Q172.4 86.2 168.1 86.2L168.1 86.2 Q163.8 86.2 163.8 81.9L163.8 81.9 Q163.8 77.6 168.1 77.6Z"/>
  <path d="M202.6 77.6 L211.2 77.6 Q215.5 77.6 215.5 81.9L215.5 90.5 Q215.5 94.8 211.2 94.8L211.2 94.8 Q206.9 94.8 206.9 90.5L206.9 86.2 L202.6 86.2 Q198.3 86.2 198.3 81.9L198.3 81.9 Q198.3 77.6 202.6 77.6Z"/>
  <path d="M30.2 86.2 L30.2 86.2 Q34.5 86.2 34.5 90.5L34.5 94.8 L38.8 94.8 Q43.1 94.8 43.1 99.1L43.1 103.4 L56 103.4 Q60.3 103.4 60.3 107.8L60.3 107.8 Q60.3 112.1 56 112.1L38.8 112.1 Q34.5 112.1 34.5 107.8L34.5 103.4 L30.2 103.4 Q25.9 103.4 25.9 99.1L25.9 94.8 L25.9 90.5 Q25.9 86.2 30.2 86.2Z"/>
  <path d="M150.9 86.2 L159.5 86.2 Q163.8 86.2 163.8 90.5L163.8 90.5 Q163.8 94.8 159.5 94.8L150.9 94.8 Q146.6 94.8 146.6 90.5L146.6 90.5 Q146.6 86.2 150.9 86.2Z"/>
  <path d="M176.7 86.2 L176.7 86.2 Q181 86.2 181 90.5L181 90.5 Q181 94.8 176.7 94.8L176.7 94.8 Q172.4 94.8 172.4 90.5L172.4 90.5 Q172.4 86.2 176.7 86.2Z"/>
  <path d="M185.3 94.8 L185.3 94.8 Q189.7 94.8 189.7 99.1L189.7 99.1 Q189.7 103.4 185.3 103.4L185.3 103.4 Q181 103.4 181 99.1L181 99.1 Q181 94.8 185.3 94.8Z"/>
  <path d="M219.8 94.8 L219.8 94.8 Q224.1 94.8 224.1 99.1L224.1 99.1 Q224.1 103.4 219.8 103.4L219.8 103.4 Q215.5 103.4 215.5 99.1L215.5 99.1 Q215.5 94.8 219.8 94.8Z"/>
  <path d="M168.1 103.4 L176.7 103.4 Q181 103.4 181 107.8L181 120.7 L185.3 120.7 Q189.7 120.7 189.7 125L189.7 125 Q189.7 129.3 185.3 129.3L176.7 129.3 Q172.4 129.3 172.4 125L172.4 120.7 L159.5 120.7 Q155.2 120.7 155.2 116.4L155.2 116.4 Q155.2 112.1 159.5 112.1L163.8 112.1 L163.8 107.8 Q163.8 103.4 168.1 103.4Z"/>
  <path d="M194 103.4 L202.6 103.4 Q206.9 103.4 206.9 107.8L206.9 112.1 L211.2 112.1 Q215.5 112.1 215.5 116.4L215.5 120.7 L228.4 120.7 Q232.8 120.7 232.8 125L232.8 146.6 L245.7 146.6 Q250 146.6 250 150.9L250 159.5 Q250 163.8 245.7 163.8L245.7 163.8 Q241.4 163.8 241.4 159.5L241.4 155.2 L228.4 155.2 Q224.1 155.2 224.1 150.9L224.1 146.6 L219.8 146.6 Q215.5 146.6 215.5 142.2L215.5 142.2 Q215.5 137.9 219.8 137.9L224.1 137.9 L224.1 129.3 L215.5 129.3 L215.5 133.6 Q215.5 137.9 211.2 137.9L206.9 137.9 L206.9 146.6 L211.2 146.6 Q215.5 146.6 215.5 150.9L215.5 155.2 L219.8 155.2 Q224.1 155.2 224.1 159.5L224.1 159.5 Q224.1 163.8 219.8 163.8L211.2 163.8 Q206.9 163.8 206.9 159.5L206.9 155.2 L194 155.2 Q189.7 155.2 189.7 150.9L189.7 150.9 Q189.7 146.6 194 146.6L198.3 146.6 L198.3 133.6 Q198.3 129.3 202.6 129.3L206.9 129.3 L206.9 120.7 L194 120.7 Q189.7 120.7 189.7 116.4L189.7 112.1 L189.7 107.8 Q189.7 103.4 194 103.4Z"/>
  <path d="M245.7 103.4 L245.7 103.4 Q250 103.4 250 107.8L250 116.4 Q250 120.7 245.7 120.7L237.1 120.7 Q232.8 120.7 232.8 116.4L232.8 116.4 Q232.8 112.1 237.1 112.1L241.4 112.1 L241.4 107.8 Q241.4 103.4 245.7 103.4Z"/>
  <path d="M30.2 112.1 L30.2 112.1 Q34.5 112.1 34.5 116.4L34.5 125 Q34.5 129.3 30.2 129.3L21.6 129.3 Q17.2 129.3 17.2 125L17.2 125 Q17.2 120.7 21.6 120.7L25.9 120.7 L25.9 116.4 Q25.9 112.1 30.2 112.1Z"/>
  <path d="M4.3 129.3 L12.9 129.3 Q17.2 129.3 17.2 133.6L17.2 133.6 Q17.2 137.9 12.9 137.9L4.3 137.9 Q0 137.9 0 133.6L0 133.6 Q0 129.3 4.3 129.3Z"/>
  <path d="M245.7 129.3 L245.7 129.3 Q250 129.3 250 133.6L250 133.6 Q250 137.9 245.7 137.9L245.7 137.9 Q241.4 137.9 241.4 133.6L241.4 133.6 Q241.4 129.3 245.7 129.3Z"/>
  <path d="M185.3 137.9 L185.3 137.9 Q189.7 137.9 189.7 142.2L189.7 142.2 Q189.7 146.6 185.3 146.6L185.3 146.6 Q181 146.6 181 142.2L181 142.2 Q181 137.9 185.3 137.9Z"/>
  <path d="M4.3 146.6 L4.3 146.6 Q8.6 146.6 8.6 150.9L8.6 155.2 L12.9 155.2 Q17.2 155.2 17.2 159.5L17.2 159.5 Q17.2 163.8 12.9 163.8L8.6 163.8 L8.6 176.7 Q8.6 181 4.3 181L4.3 181 Q0 181 0 176.7L0 155.2 L0 150.9 Q0 146.6 4.3 146.6Z"/>
  <path d="M21.6 146.6 L21.6 146.6 Q25.9 146.6 25.9 150.9L25.9 150.9 Q25.9 155.2 21.6 155.2L21.6 155.2 Q17.2 155.2 17.2 150.9L17.2 150.9 Q17.2 146.6 21.6 146.6Z"/>
  <path d="M47.4 146.6 L47.4 146.6 Q51.7 146.6 51.7 150.9L51.7 155.2 L56 155.2 Q60.3 155.2 60.3 159.5L60.3 159.5 Q60.3 163.8 56 163.8L30.2 163.8 Q25.9 163.8 25.9 159.5L25.9 159.5 Q25.9 155.2 30.2 155.2L43.1 155.2 L43.1 150.9 Q43.1 146.6 47.4 146.6Z"/>
  <path d="M21.6 163.8 L21.6 163.8 Q25.9 163.8 25.9 168.1L25.9 176.7 Q25.9 181 21.6 181L21.6 181 Q17.2 181 17.2 176.7L17.2 172.4 L17.2 168.1 Q17.2 163.8 21.6 163.8Z"/>
  <path d="M176.7 163.8 L176.7 163.8 Q181 163.8 181 168.1L181 172.4 L189.7 172.4 L189.7 168.1 Q189.7 163.8 194 163.8L194 163.8 Q198.3 163.8 198.3 168.1L198.3 172.4 L211.2 172.4 Q215.5 172.4 215.5 176.7L215.5 181 L219.8 181 Q224.1 181 224.1 185.3L224.1 189.7 L228.4 189.7 Q232.8 189.7 232.8 194L232.8 194 Q232.8 198.3 228.4 198.3L215.5 198.3 L215.5 206.9 L219.8 206.9 Q224.1 206.9 224.1 211.2L224.1 215.5 L237.1 215.5 Q241.4 215.5 241.4 219.8L241.4 228.4 Q241.4 232.8 237.1 232.8L232.8 232.8 L232.8 245.7 Q232.8 250 228.4 250L228.4 250 Q224.1 250 224.1 245.7L224.1 241.4 L219.8 241.4 Q215.5 241.4 215.5 237.1L215.5 232.8 L206.9 232.8 L206.9 241.4 L211.2 241.4 Q215.5 241.4 215.5 245.7L215.5 245.7 Q215.5 250 211.2 250L194 250 Q189.7 250 189.7 245.7L189.7 232.8 L168.1 232.8 Q163.8 232.8 163.8 228.4L163.8 224.1 L146.6 224.1 L146.6 241.4 L150.9 241.4 Q155.2 241.4 155.2 245.7L155.2 245.7 Q155.2 250 150.9 250L133.6 250 Q129.3 250 129.3 245.7L129.3 245.7 Q129.3 241.4 133.6 241.4L137.9 241.4 L137.9 232.8 L107.8 232.8 Q103.4 232.8 103.4 228.4L103.4 224.1 L99.1 224.1 Q94.8 224.1 94.8 219.8L94.8 219.8 Q94.8 215.5 99.1 215.5L112.1 215.5 L112.1 206.9 L99.1 206.9 Q94.8 206.9 94.8 202.6L94.8 185.3 Q94.8 181 99.1 181L99.1 181 Q103.4 181 103.4 185.3L103.4 198.3 L112.1 198.3 L112.1 185.3 Q112.1 181 116.4 181L116.4 181 Q120.7 181 120.7 185.3L120.7 189.7 L133.6 189.7 Q137.9 189.7 137.9 194L137.9 215.5 L155.2 215.5 L155.2 211.2 Q155.2 206.9 159.5 206.9L163.8 206.9 L163.8 198.3 L159.5 198.3 Q155.2 198.3 155.2 194L155.2 194 Q155.2 189.7 159.5 189.7L172.4 189.7 L172.4 181 L168.1 181 Q163.8 181 163.8 176.7L163.8 176.7 Q163.8 172.4 168.1 172.4L172.4 172.4 L172.4 168.1 Q172.4 163.8 176.7 163.8ZM181 185.3 L181 206.9 L206.9 206.9 L206.9 181 L189.7 181 L181 181 ZM120.7 202.6 L120.7 224.1 L129.3 224.1 L129.3 198.3 L120.7 198.3 ZM189.7 219.8 L189.7 224.1 L215.5 224.1 L215.5 215.5 L198.3 215.5 L189.7 215.5 Z"/>
  <path d="M38.8 172.4 L56 172.4 Q60.3 172.4 60.3 176.7L60.3 176.7 Q60.3 181 56 181L38.8 181 Q34.5 181 34.5 176.7L34.5 176.7 Q34.5 172.4 38.8 172.4Z"/>
  <path d="M107.8 172.4 L107.8 172.4 Q112.1 172.4 112.1 176.7L112.1 176.7 Q112.1 181 107.8 181L107.8 181 Q103.4 181 103.4 176.7L103.4 176.7 Q103.4 172.4 107.8 172.4Z"/>
  <path d="M150.9 172.4 L150.9 172.4 Q155.2 172.4 155.2 176.7L155.2 185.3 Q155.2 189.7 150.9 189.7L142.2 189.7 Q137.9 189.7 137.9 185.3L137.9 185.3 Q137.9 181 142.2 181L146.6 181 L146.6 176.7 Q146.6 172.4 150.9 172.4Z"/>
  <path d="M228.4 172.4 L245.7 172.4 Q250 172.4 250 176.7L250 176.7 Q250 181 245.7 181L228.4 181 Q224.1 181 224.1 176.7L224.1 176.7 Q224.1 172.4 228.4 172.4Z"/>
  <path d="M194 189.7 L194 189.7 Q198.3 189.7 198.3 194L198.3 194 Q198.3 198.3 194 198.3L194 198.3 Q189.7 198.3 189.7 194L189.7 194 Q189.7 189.7 194 189.7Z"/>
  <path d="M237.1 198.3 L245.7 198.3 Q250 198.3 250 202.6L250 202.6 Q250 206.9 245.7 206.9L237.1 206.9 Q232.8 206.9 232.8 202.6L232.8 202.6 Q232.8 198.3 237.1 198.3Z"/>
  <path d="M90.5 206.9 L90.5 206.9 Q94.8 206.9 94.8 211.2L94.8 211.2 Q94.8 215.5 90.5 215.5L90.5 215.5 Q86.2 215.5 86.2 211.2L86.2 211.2 Q86.2 206.9 90.5 206.9Z"/>
  <path d="M90.5 224.1 L90.5 224.1 Q94.8 224.1 94.8 228.4L94.8 228.4 Q94.8 232.8 90.5 232.8L90.5 232.8 Q86.2 232.8 86.2 228.4L86.2 228.4 Q86.2 224.1 90.5 224.1Z"/>
  <path d="M99.1 232.8 L99.1 232.8 Q103.4 232.8 103.4 237.1L103.4 245.7 Q103.4 250 99.1 250L90.5 250 Q86.2 250 86.2 245.7L86.2 245.7 Q86.2 241.4 90.5 241.4L94.8 241.4 L94.8 237.1 Q94.8 232.8 99.1 232.8Z"/>
  <path d="M245.7 232.8 L245.7 232.8 Q250 232.8 250 237.1L250 237.1 Q250 241.4 245.7 241.4L245.7 241.4 Q241.4 241.4 241.4 237.1L241.4 237.1 Q241.4 232.8 245.7 232.8Z"/>
  <path d="M73.3 241.4 L73.3 241.4 Q77.6 241.4 77.6 245.7L77.6 245.7 Q77.6 250 73.3 250L73.3 250 Q69 250 69 245.7L69 245.7 Q69 241.4 73.3 241.4Z"/>
  <path d="M116.4 241.4 L116.4 241.4 Q120.7 241.4 120.7 245.7L120.7 245.7 Q120.7 250 116.4 250L116.4 250 Q112.1 250 112.1 245.7L112.1 245.7 Q112.1 241.4 116.4 241.4Z"/>
  <path d="M168.1 241.4 L168.1 241.4 Q172.4 241.4 172.4 245.7L172.4 245.7 Q172.4 250 168.1 250L168.1 250 Q163.8 250 163.8 245.7L163.8 245.7 Q163.8 241.4 168.1 241.4Z"/>
  <path d="M 30.2 0 A 30.2 30.2 0 1 0 30.2 60.4 A 30.2 30.2 0 1 0 30.2 0 Z M 30.2 8.599999999999998 A 21.6 21.6 0 1 1 30.2 51.8 A 21.6 21.6 0 1 1 30.2 8.6 Z" />
  <path d="M 30.2 17.299999999999997 A 12.9 12.9 0 1 0 30.2 43.1 A 12.9 12.9 0 1 0 30.2 17.3 Z" />
  <path d="M 219.8 0 A 30.2 30.2 0 1 0 219.8 60.4 A 30.2 30.2 0 1 0 219.8 0 Z M 219.8 8.599999999999998 A 21.6 21.6 0 1 1 219.8 51.8 A 21.6 21.6 0 1 1 219.8 8.6 Z" />
  <path d="M 219.8 17.299999999999997 A 12.9 12.9 0 1 0 219.8 43.1 A 12.9 12.9 0 1 0 219.8 17.3 Z" />
  <path d="M 30.2 189.60000000000002 A 30.2 30.2 0 1 0 30.2 250 A 30.2 30.2 0 1 0 30.2 189.6 Z M 30.2 198.20000000000002 A 21.6 21.6 0 1 1 30.2 241.4 A 21.6 21.6 0 1 1 30.2 198.2 Z" />
  <path d="M 30.2 206.9 A 12.9 12.9 0 1 0 30.2 232.7 A 12.9 12.9 0 1 0 30.2 206.9 Z" />
</svg>
