<svg xmlns="http://www.w3.org/2000/svg" viewBox="0 0 250 250" width="250" height="250" fill="#182026">
  <rect width="100%" height="100%" fill="#fff"/>
  <path d="M0 0 L60.3 0 L60.3 60.3 L0 60.3 L0 8.6 L0 0 ZM8.6 8.6 L8.6 51.7 L51.7 51.7 L51.7 8.6 L17.2 8.6 L8.6 8.6 Z"/>
  <path d="M77.6 0 L103.4 0 L103.4 17.2 L94.8 17.2 L94.8 8.6 L77.6 8.6 L77.6 0 Z"/>
  <path d="M112.1 0 L137.9 0 L137.9 17.2 L129.3 17.2 L129.3 8.6 L112.1 8.6 L112.1 0 Z"/>
  <path d="M155.2 0 L163.8 0 L163.8 8.6 L155.2 8.6 L155.2 0 Z"/>
  <path d="M189.7 0 L250 0 L250 60.3 L189.7 60.3 L189.7 8.6 L189.7 0 ZM198.3 8.6 L198.3 51.7 L241.4 51.7 L241.4 8.6 L206.9 8.6 L198.3 8.6 Z"/>
  <path d="M69 8.6 L77.6 8.6 L77.6 25.9 L86.2 25.9 L86.2 34.5 L69 34.5 L69 17.2 L69 8.6 Z"/>
  <path d="M146.6 8.6 L155.2 8.6 L155.2 17.2 L146.6 17.2 L146.6 8.6 Z"/>
  <path d="M172.4 8.6 L181 8.6 L181 17.2 L172.4 17.2 L172.4 8.6 Z"/>
  <path d="M17.2 17.2 L43.1 17.2 L43.1 43.1 L17.2 43.1 L17.2 25.9 L17.2 17.2 Z"/>
  <path d="M103.4 17.2 L112.1 17.2 L112.1 25.9 L103.4 25.9 L103.4 17.2 Z"/>
  <path d="M120.7 17.2 L129.3 17.2 L129.3 25.9 L137.9 25.9 L137.9 43.1 L129.3 43.1 L129.3 60.3 L120.7 60.3 L120.7 51.7 L112.1 51.7 L112.1 60.3 L103.4 60.3 L103.4 43.1 L86.2 43.1 L86.2 34.5 L94.8 34.5 L94.8 25.9 L103.4 25.9 L103.4 34.5 L120.7 34.5 L120.7 25.9 L120.7 17.2 Z"/>
  <path d="M137.9 17.2 L146.6 17.2 L146.6 25.9 L137.9 25.9 L137.9 17.2 Z"/>
  <path d="M155.2 17.2 L163.8 17.2 L163.8 25.9 L181 25.9 L181 43.1 L155.2 43.1 L155.2 51.7 L146.6 51.7 L146.6 60.3 L137.9 60.3 L137.9 43.1 L146.6 43.1 L146.6 25.9 L155.2 25.9 L155.2 17.2 Z"/>
  <path d="M206.9 17.2 L232.8 17.2 L232.8 43.1 L206.9 43.1 L206.9 25.9 L206.9 17.2 Z"/>
  <path d="M69 51.7 L77.6 51.7 L77.6 60.3 L86.2 60.3 L86.2 51.7 L94.8 51.7 L94.8 60.3 L103.4 60.3 L103.4 69 L77.6 69 L77.6 86.2 L69 86.2 L69 94.8 L51.7 94.8 L51.7 86.2 L60.3 86.2 L60.3 77.6 L69 77.6 L69 60.3 L69 51.7 Z"/>
  <path d="M155.2 51.7 L163.8 51.7 L163.8 60.3 L155.2 60.3 L155.2 51.7 Z"/>
  <path d="M172.4 51.7 L181 51.7 L181 69 L198.3 69 L198.3 77.6 L189.7 77.6 L189.7 86.2 L181 86.2 L181 77.6 L172.4 77.6 L172.4 69 L163.8 69 L163.8 60.3 L172.4 60.3 L172.4 51.7 Z"/>
  <path d="M112.1 60.3 L120.7 60.3 L120.7 69 L112.1 69 L112.1 60.3 Z"/>
  <path d="M0 69 L8.6 69 L8.6 94.8 L17.2 94.8 L17.2 120.7 L0 120.7 L0 77.6 L0 69 Z"/>
  <path d="M51.7 69 L60.3 69 L60.3 77.6 L51.7 77.6 L51.7 69 Z"/>
  <path d="M120.7 69 L137.9 69 L137.9 77.6 L129.3 77.6 L129.3 86.2 L120.7 86.2 L120.7 77.6 L120.7 69 Z"/>
  <path d="M146.6 69 L155.2 69 L155.2 77.6 L146.6 77.6 L146.6 69 Z"/>
  <path d="M215.5 69 L241.4 69 L241.4 86.2 L224.1 86.2 L224.1 77.6 L215.5 77.6 L215.5 69 Z"/>
  <path d="M17.2 77.6 L25.9 77.6 L25.9 86.2 L17.2 86.2 L17.2 77.6 Z"/>
  <path d="M34.5 77.6 L51.7 77.6 L51.7 86.2 L34.5 86.2 L34.5 77.6 Z"/>
  <path d="M86.2 77.6 L112.1 77.6 L112.1 86.2 L103.4 86.2 L103.4 120.7 L112.1 120.7 L112.1 103.4 L120.7 103.4 L120.7 94.8 L146.6 94.8 L146.6 103.4 L129.3 103.4 L129.3 120.7 L146.6 120.7 L146.6 137.9 L137.9 137.9 L137.9 129.3 L129.3 129.3 L129.3 137.9 L137.9 137.9 L137.9 146.6 L120.7 146.6 L120.7 137.9 L112.1 137.9 L112.1 129.3 L94.8 129.3 L94.8 155.2 L129.3 155.2 L129.3 163.8 L137.9 163.8 L137.9 146.6 L146.6 146.6 L146.6 137.9 L155.2 137.9 L155.2 155.2 L163.8 155.2 L163.8 129.3 L172.4 129.3 L172.4 163.8 L163.8 163.8 L163.8 172.4 L155.2 172.4 L155.2 163.8 L146.6 163.8 L146.6 172.4 L120.7 172.4 L120.7 163.8 L86.2 163.8 L86.2 172.4 L94.8 172.4 L94.8 181 L86.2 181 L86.2 206.9 L77.6 206.9 L77.6 189.7 L69 189.7 L69 181 L77.6 181 L77.6 163.8 L69 163.8 L69 155.2 L86.2 155.2 L86.2 146.6 L69 146.6 L69 155.2 L60.3 155.2 L60.3 146.6 L51.7 146.6 L51.7 137.9 L60.3 137.9 L60.3 129.3 L51.7 129.3 L51.7 137.9 L43.1 137.9 L43.1 146.6 L25.9 146.6 L25.9 137.9 L34.5 137.9 L34.5 129.3 L43.1 129.3 L43.1 120.7 L60.3 120.7 L60.3 112.1 L69 112.1 L69 120.7 L77.6 120.7 L77.6 112.1 L69 112.1 L69 94.8 L77.6 94.8 L77.6 103.4 L94.8 103.4 L94.8 94.8 L77.6 94.8 L77.6 86.2 L86.2 86.2 L86.2 77.6 ZM86.2 112.1 L86.2 120.7 L94.8 120.7 L94.8 112.1 L86.2 112.1 ZM77.6 129.3 L77.6 137.9 L86.2 137.9 L86.2 129.3 L77.6 129.3 Z"/>
  <path d="M163.8 77.6 L172.4 77.6 L172.4 86.2 L163.8 86.2 L163.8 77.6 Z"/>
  <path d="M198.3 77.6 L215.5 77.6 L215.5 94.8 L206.9 94.8 L206.9 86.2 L198.3 86.2 L198.3 77.6 Z"/>
  <path d="M25.9 86.2 L34.5 86.2 L34.5 94.8 L43.1 94.8 L43.1 103.4 L60.3 103.4 L60.3 112.1 L34.5 112.1 L34.5 103.4 L25.9 103.4 L25.9 94.8 L25.9 86.2 Z"/>
  <path d="M146.6 86.2 L163.8 86.2 L163.8 94.8 L146.6 94.8 L146.6 86.2 Z"/>
  <path d="M172.4 86.2 L181 86.2 L181 94.8 L172.4 94.8 L172.4 86.2 Z"/>
  <path d="M181 94.8 L189.7 94.8 L189.7 103.4 L181 103.4 L181 94.8 Z"/>
  <path d="M215.5 94.8 L224.1 94.8 L224.1 103.4 L215.5 103.4 L215.5 94.8 Z"/>
  <path d="M163.8 103.4 L181 103.4 L181 120.7 L189.7 120.7 L189.7 129.3 L172.4 129.3 L172.4 120.7 L155.2 120.7 L155.2 112.1 L163.8 112.1 L163.8 103.4 Z"/>
  <path d="M189.7 103.4 L206.9 103.4 L206.9 112.1 L215.5 112.1 L215.5 120.7 L232.8 120.7 L232.8 146.6 L250 146.6 L250 163.8 L241.4 163.8 L241.4 155.2 L224.1 155.2 L224.1 146.6 L215.5 146.6 L215.5 137.9 L224.1 137.9 L224.1 129.3 L215.5 129.3 L215.5 137.9 L206.9 137.9 L206.9 146.6 L215.5 146.6 L215.5 155.2 L224.1 155.2 L224.1 163.8 L206.9 163.8 L206.9 155.2 L189.7 155.2 L189.7 146.6 L198.3 146.6 L198.3 129.3 L206.9 129.3 L206.9 120.7 L189.7 120.7 L189.7 112.1 L189.7 103.4 Z"/>
  <path d="M241.4 103.4 L250 103.4 L250 120.7 L232.8 120.7 L232.8 112.1 L241.4 112.1 L241.4 103.4 Z"/>
  <path d="M25.9 112.1 L34.5 112.1 L34.5 129.3 L17.2 129.3 L17.2 120.7 L25.9 120.7 L25.9 112.1 Z"/>
  <path d="M0 129.3 L17.2 129.3 L17.2 137.9 L0 137.9 L0 129.3 Z"/>
  <path d="M241.4 129.3 L250 129.3 L250 137.9 L241.4 137.9 L241.4 129.3 Z"/>
  <path d="M181 137.9 L189.7 137.9 L189.7 146.6 L181 146.6 L181 137.9 Z"/>
  <path d="M0 146.6 L8.6 146.6 L8.6 155.2 L17.2 155.2 L17.2 163.8 L8.6 163.8 L8.6 181 L0 181 L0 155.2 L0 146.6 Z"/>
  <path d="M17.2 146.6 L25.9 146.6 L25.9 155.2 L17.2 155.2 L17.2 146.6 Z"/>
  <path d="M43.1 146.6 L51.7 146.6 L51.7 155.2 L60.3 155.2 L60.3 163.8 L25.9 163.8 L25.9 155.2 L43.1 155.2 L43.1 146.6 Z"/>
  <path d="M17.2 163.8 L25.9 163.8 L25.9 181 L17.2 181 L17.2 172.4 L17.2 163.8 Z"/>
  <path d="M172.4 163.8 L181 163.8 L181 172.4 L189.7 172.4 L189.7 163.8 L198.3 163.8 L198.3 172.4 L215.5 172.4 L215.5 181 L224.1 181 L224.1 189.7 L232.8 189.7 L232.8 198.3 L215.5 198.3 L215.5 206.9 L224.1 206.9 L224.1 215.5 L241.4 215.5 L241.4 232.8 L232.8 232.8 L232.8 250 L224.1 250 L224.1 241.4 L215.5 241.4 L215.5 232.8 L206.9 232.8 L206.9 241.4 L215.5 241.4 L215.5 250 L189.7 250 L189.7 232.8 L163.8 232.8 L163.8 224.1 L146.6 224.1 L146.6 241.4 L155.2 241.4 L155.2 250 L129.3 250 L129.3 241.4 L137.9 241.4 L137.9 232.8 L103.4 232.8 L103.4 224.1 L94.8 224.1 L94.8 215.5 L112.1 215.5 L112.1 206.9 L94.8 206.9 L94.8 181 L103.4 181 L103.4 198.3 L112.1 198.3 L112.1 181 L120.7 181 L120.7 189.7 L137.9 189.7 L137.9 215.5 L155.2 215.5 L155.2 206.9 L163.8 206.9 L163.8 198.3 L155.2 198.3 L155.2 189.7 L172.4 189.7 L172.4 181 L163.8 181 L163.8 172.4 L172.4 172.4 L172.4 163.8 ZM181 181 L181 206.9 L206.9 206.9 L206.9 181 L189.7 181 L181 181 ZM120.7 198.3 L120.7 224.1 L129.3 224.1 L129.3 198.3 L120.7 198.3 ZM189.7 215.5 L189.7 224.1 L215.5 224.1 L215.5 215.5 L198.3 215.5 L189.7 215.5 Z"/>
  <path d="M34.5 172.4 L60.3 172.4 L60.3 181 L34.5 181 L34.5 172.4 Z"/>
  <path d="M103.4 172.4 L112.1 172.4 L112.1 181 L103.4 181 L103.4 172.4 Z"/>
  <path d="M146.6 172.4 L155.2 172.4 L155.2 189.7 L137.9 189.7 L137.9 181 L146.6 181 L146.6 172.4 Z"/>
  <path d="M224.1 172.4 L250 172.4 L250 181 L224.1 181 L224.1 172.4 Z"/>
  <path d="M0 189.7 L60.3 189.7 L60.3 250 L0 250 L0 198.3 L0 189.7 ZM8.6 198.3 L8.6 241.4 L51.7 241.4 L51.7 198.3 L17.2 198.3 L8.6 198.3 Z"/>
  <path d="M189.7 189.7 L198.3 189.7 L198.3 198.3 L189.7 198.3 L189.7 189.7 Z"/>
  <path d="M232.8 198.3 L250 198.3 L250 206.9 L232.8 206.9 L232.8 198.3 Z"/>
  <path d="M17.2 206.9 L43.1 206.9 L43.1 232.8 L17.2 232.8 L17.2 215.5 L17.2 206.9 Z"/>
  <path d="M86.2 206.9 L94.8 206.9 L94.8 215.5 L86.2 215.5 L86.2 206.9 Z"/>
  <path d="M86.2 224.1 L94.8 224.1 L94.8 232.8 L86.2 232.8 L86.2 224.1 Z"/>
  <path d="M94.8 232.8 L103.4 232.8 L103.4 250 L86.2 250 L86.2 241.4 L94.8 241.4 L94.8 232.8 Z"/>
  <path d="M241.4 232.8 L250 232.8 L250 241.4 L241.4 241.4 L241.4 232.8 Z"/>
  <path d="M69 241.4 L77.6 241.4 L77.6 250 L69 250 L69 241.4 Z"/>
  <path d="M112.1 241.4 L120.7 241.4 L120.7 250 L112.1 250 L112.1 241.4 Z"/>
  <path d="M163.8 241.4 L172.4 241.4 L172.4 250 L163.8 250 L163.8 241.4 Z"/>
</svg>
