<?xml version="1.0" standalone="yes"?>
<svg xmlns="http://www.w3.org/2000/svg" version="1.1" width="380" height="380">
  <path d="M104.5,-0.33h13.75v13.75h-6.88a6.87,6.87 0 0 1 -6.87,-6.87v-0.01a6.87,6.87 0 0 1 6.87,-6.87z" fill="#182026" />
  <path d="M117.6,-0.33h13.75v13.75h-13.75v-13.75z" fill="#182026" />
  <path d="M130.7,-0.33h13.75v13.75h-13.75v-13.75z" fill="#182026" />
  <path d="M143.81,-0.33h13.75v13.75h-13.75v-13.75z" fill="#182026" />
  <path d="M156.91,-0.33h13.75v13.75h-13.75v-13.75z" fill="#182026" />
  <path d="M170.01,-0.33h6.88a6.87,6.87 0 0 1 6.87,6.87v6.88h-13.75v-13.75z" fill="#182026" />
  <path d="M196.22,-0.33h6.88a6.87,6.87 0 0 1 6.87,6.87v6.88h-13.75v-6.88a6.87,6.87 0 0 1 6.87,-6.87z" fill="#182026" />
  <path d="M222.43,-0.33h13.75v13.75h-6.88a6.87,6.87 0 0 1 -6.87,-6.87v-0.01a6.87,6.87 0 0 1 6.87,-6.87z" fill="#182026" />
  <path d="M235.53,-0.33h13.75v13.75h-13.75v-13.75z" fill="#182026" />
  <path d="M248.63,-0.33h13.75v13.75h-13.75v-13.75z" fill="#182026" />
  <path d="M261.74,-0.33h6.88a6.87,6.87 0 0 1 6.87,6.87v0.01a6.87,6.87 0 0 1 -6.87,6.87h-6.88v-13.75z" fill="#182026" />
  <path d="M143.81,12.77h13.75v13.75h-6.88a6.87,6.87 0 0 1 -6.87,-6.87v-6.88z" fill="#182026" />
  <path d="M156.91,12.77h13.75v13.75h-13.75v-13.75z" fill="#182026" />
  <path d="M170.01,12.77h13.75v6.88a6.87,6.87 0 0 1 -6.87,6.87h-6.88v-13.75z" fill="#182026" />
  <path d="M196.22,12.77h13.75v6.88a6.87,6.87 0 0 1 -6.87,6.87h-0.01a6.87,6.87 0 0 1 -6.87,-6.87v-6.88z" fill="#182026" />
  <path d="M235.53,12.77h13.75v6.88a6.87,6.87 0 0 1 -6.87,6.87h-0.01a6.87,6.87 0 0 1 -6.87,-6.87v-6.88z" fill="#182026" />
  <path d="M117.6,25.87h6.88a6.87,6.87 0 0 1 6.87,6.87v0.01a6.87,6.87 0 0 1 -6.87,6.87h-0.01a6.87,6.87 0 0 1 -6.87,-6.87v-0.01a6.87,6.87 0 0 1 6.87,-6.87z" fill="#182026" />
  <path d="M183.12,25.87h6.88a6.87,6.87 0 0 1 6.87,6.87v6.88h-13.75v-6.88a6.87,6.87 0 0 1 6.87,-6.87z" fill="#182026" />
  <path d="M222.43,25.87h6.88a6.87,6.87 0 0 1 6.87,6.87v0.01a6.87,6.87 0 0 1 -6.87,6.87h-0.01a6.87,6.87 0 0 1 -6.87,-6.87v-0.01a6.87,6.87 0 0 1 6.87,-6.87z" fill="#182026" />
  <path d="M248.63,25.87h13.75v13.75h-6.88a6.87,6.87 0 0 1 -6.87,-6.87v-0.01a6.87,6.87 0 0 1 6.87,-6.87z" fill="#182026" />
  <path d="M261.74,25.87h6.88a6.87,6.87 0 0 1 6.87,6.87v0.01a6.87,6.87 0 0 1 -6.87,6.87h-6.88v-13.75z" fill="#182026" />
  <path d="M130.7,38.98h13.75v13.75h-6.88a6.87,6.87 0 0 1 -6.87,-6.87v-0.01a6.87,6.87 0 0 1 6.87,-6.87z" fill="#182026" />
  <path d="M143.81,38.98h6.88a6.87,6.87 0 0 1 6.87,6.87v6.88h-13.75v-13.75z" fill="#182026" />
  <path d="M170.01,38.98h13.75v13.75h-6.88a6.87,6.87 0 0 1 -6.87,-6.87v-0.01a6.87,6.87 0 0 1 6.87,-6.87z" fill="#182026" />
  <path d="M183.12,38.98h13.75v6.88a6.87,6.87 0 0 1 -6.87,6.87h-6.88v-13.75z" fill="#182026" />
  <path d="M209.32,38.98h6.88a6.87,6.87 0 0 1 6.87,6.87v6.88h-13.75v-6.88a6.87,6.87 0 0 1 6.87,-6.87z" fill="#182026" />
  <path d="M235.53,38.98h6.88a6.87,6.87 0 0 1 6.87,6.87v6.88h-13.75v-6.88a6.87,6.87 0 0 1 6.87,-6.87z" fill="#182026" />
  <path d="M117.6,52.08h6.88a6.87,6.87 0 0 1 6.87,6.87v6.88h-13.75v-6.88a6.87,6.87 0 0 1 6.87,-6.87z" fill="#182026" />
  <path d="M143.81,52.08h13.75v13.75h-6.88a6.87,6.87 0 0 1 -6.87,-6.87v-6.88z" fill="#182026" />
  <path d="M156.91,52.08h6.88a6.87,6.87 0 0 1 6.87,6.87v6.88h-13.75v-13.75z" fill="#182026" />
  <path d="M196.22,52.08h13.75v13.75h-13.75v-6.88a6.87,6.87 0 0 1 6.87,-6.87z" fill="#182026" />
  <path d="M209.32,52.08h13.75v6.88a6.87,6.87 0 0 1 -6.87,6.87h-6.88v-13.75z" fill="#182026" />
  <path d="M235.53,52.08h13.75v13.75h-13.75v-13.75z" fill="#182026" />
  <path d="M261.74,52.08h6.88a6.87,6.87 0 0 1 6.87,6.87v6.88h-13.75v-6.88a6.87,6.87 0 0 1 6.87,-6.87z" fill="#182026" />
  <path d="M117.6,65.18h13.75v6.88a6.87,6.87 0 0 1 -6.87,6.87h-0.01a6.87,6.87 0 0 1 -6.87,-6.87v-6.88z" fill="#182026" />
  <path d="M156.91,65.18h13.75v13.75h-13.75v-13.75z" fill="#182026" />
  <path d="M183.12,65.18h13.75v13.75h-13.75v-6.88a6.87,6.87 0 0 1 6.87,-6.87z" fill="#182026" />
  <path d="M196.22,65.18h13.75v6.88a6.87,6.87 0 0 1 -6.87,6.87h-6.88v-13.75z" fill="#182026" />
  <path d="M222.43,65.18h13.75v13.75h-6.88a6.87,6.87 0 0 1 -6.87,-6.87v-0.01a6.87,6.87 0 0 1 6.87,-6.87z" fill="#182026" />
  <path d="M235.53,65.18h13.75v13.75h-13.75v-13.75z" fill="#182026" />
  <path d="M261.74,65.18h13.75v13.75h-13.75v-13.75z" fill="#182026" />
  <path d="M104.5,78.29h6.88a6.87,6.87 0 0 1 6.87,6.87v0.01a6.87,6.87 0 0 1 -6.87,6.87h-0.01a6.87,6.87 0 0 1 -6.87,-6.87v-0.01a6.87,6.87 0 0 1 6.87,-6.87z" fill="#182026" />
  <path d="M130.7,78.29h6.88a6.87,6.87 0 0 1 6.87,6.87v6.88h-13.75v-6.88a6.87,6.87 0 0 1 6.87,-6.87z" fill="#182026" />
  <path d="M156.91,78.29h13.75v6.88a6.87,6.87 0 0 1 -6.87,6.87h-0.01a6.87,6.87 0 0 1 -6.87,-6.87v-6.88z" fill="#182026" />
  <path d="M183.12,78.29h13.75v13.75h-13.75v-13.75z" fill="#182026" />
  <path d="M209.32,78.29h6.88a6.87,6.87 0 0 1 6.87,6.87v6.88h-13.75v-6.88a6.87,6.87 0 0 1 6.87,-6.87z" fill="#182026" />
  <path d="M235.53,78.29h13.75v6.88a6.87,6.87 0 0 1 -6.87,6.87h-0.01a6.87,6.87 0 0 1 -6.87,-6.87v-6.88z" fill="#182026" />
  <path d="M261.74,78.29h13.75v6.88a6.87,6.87 0 0 1 -6.87,6.87h-0.01a6.87,6.87 0 0 1 -6.87,-6.87v-6.88z" fill="#182026" />
  <path d="M117.6,91.39h13.75v13.75h-13.75v-6.88a6.87,6.87 0 0 1 6.87,-6.87z" fill="#182026" />
  <path d="M130.7,91.39h13.75v6.88a6.87,6.87 0 0 1 -6.87,6.87h-6.88v-13.75z" fill="#182026" />
  <path d="M170.01,91.39h13.75v13.75h-6.88a6.87,6.87 0 0 1 -6.87,-6.87v-0.01a6.87,6.87 0 0 1 6.87,-6.87z" fill="#182026" />
  <path d="M183.12,91.39h13.75v13.75h-13.75v-13.75z" fill="#182026" />
  <path d="M196.22,91.39h13.75v13.75h-13.75v-13.75z" fill="#182026" />
  <path d="M209.32,91.39h13.75v13.75h-13.75v-13.75z" fill="#182026" />
  <path d="M222.43,91.39h6.88a6.87,6.87 0 0 1 6.87,6.87v0.01a6.87,6.87 0 0 1 -6.87,6.87h-6.88v-13.75z" fill="#182026" />
  <path d="M12.77,104.5h13.75v13.75h-6.88a6.87,6.87 0 0 1 -6.87,-6.87v-0.01a6.87,6.87 0 0 1 6.87,-6.87z" fill="#182026" />
  <path d="M25.87,104.5h13.75v13.75h-13.75v-13.75z" fill="#182026" />
  <path d="M38.98,104.5h6.88a6.87,6.87 0 0 1 6.87,6.87v6.88h-13.75v-13.75z" fill="#182026" />
  <path d="M78.29,104.5h13.75v13.75h-6.88a6.87,6.87 0 0 1 -6.87,-6.87v-0.01a6.87,6.87 0 0 1 6.87,-6.87z" fill="#182026" />
  <path d="M91.39,104.5h13.75v13.75h-13.75v-13.75z" fill="#182026" />
  <path d="M104.5,104.5h13.75v13.75h-13.75v-13.75z" fill="#182026" />
  <path d="M117.6,104.5h13.75v6.88a6.87,6.87 0 0 1 -6.87,6.87h-6.88v-13.75z" fill="#182026" />
  <path d="M143.81,104.5h13.75v13.75h-6.88a6.87,6.87 0 0 1 -6.87,-6.87v-0.01a6.87,6.87 0 0 1 6.87,-6.87z" fill="#182026" />
  <path d="M156.91,104.5h6.88a6.87,6.87 0 0 1 6.87,6.87v6.88h-13.75v-13.75z" fill="#182026" />
  <path d="M183.12,104.5h13.75v13.75h-13.75v-13.75z" fill="#182026" />
  <path d="M196.22,104.5h13.75v13.75h-13.75v-13.75z" fill="#182026" />
  <path d="M209.32,104.5h13.75v13.75h-13.75v-13.75z" fill="#182026" />
  <path d="M235.53,104.5h6.88a6.87,6.87 0 0 1 6.87,6.87v6.88h-13.75v-6.88a6.87,6.87 0 0 1 6.87,-6.87z" fill="#182026" />
  <path d="M274.84,104.5h6.88a6.87,6.87 0 0 1 6.87,6.87v6.88h-13.75v-6.88a6.87,6.87 0 0 1 6.87,-6.87z" fill="#182026" />
  <path d="M366.56,104.5h6.88a6.87,6.87 0 0 1 6.87,6.87v0.01a6.87,6.87 0 0 1 -6.87,6.87h-0.01a6.87,6.87 0 0 1 -6.87,-6.87v-0.01a6.87,6.87 0 0 1 6.87,-6.87z" fill="#182026" />
  <path d="M-0.33,117.6h6.88a6.87,6.87 0 0 1 6.87,6.87v6.88h-13.75v-6.88a6.87,6.87 0 0 1 6.87,-6.87z" fill="#182026" />
  <path d="M38.98,117.6h13.75v6.88a6.87,6.87 0 0 1 -6.87,6.87h-0.01a6.87,6.87 0 0 1 -6.87,-6.87v-6.88z" fill="#182026" />
  <path d="M91.39,117.6h13.75v13.75h-13.75v-13.75z" fill="#182026" />
  <path d="M130.7,117.6h6.88a6.87,6.87 0 0 1 6.87,6.87v6.88h-13.75v-6.88a6.87,6.87 0 0 1 6.87,-6.87z" fill="#182026" />
  <path d="M156.91,117.6h13.75v13.75h-13.75v-13.75z" fill="#182026" />
  <path d="M170.01,117.6h13.75v13.75h-13.75v-13.75z" fill="#182026" />
  <path d="M183.12,117.6h13.75v13.75h-13.75v-13.75z" fill="#182026" />
  <path d="M209.32,117.6h13.75v13.75h-13.75v-13.75z" fill="#182026" />
  <path d="M235.53,117.6h13.75v13.75h-13.75v-13.75z" fill="#182026" />
  <path d="M248.63,117.6h13.75v13.75h-13.75v-13.75z" fill="#182026" />
  <path d="M261.74,117.6h13.75v13.75h-13.75v-13.75z" fill="#182026" />
  <path d="M274.84,117.6h13.75v13.75h-13.75v-13.75z" fill="#182026" />
  <path d="M287.94,117.6h13.75v13.75h-13.75v-13.75z" fill="#182026" />
  <path d="M301.05,117.6h6.88a6.87,6.87 0 0 1 6.87,6.87v0.01a6.87,6.87 0 0 1 -6.87,6.87h-6.88v-13.75z" fill="#182026" />
  <path d="M-0.33,130.7h13.75v13.75h-13.75v-13.75z" fill="#182026" />
  <path d="M52.08,130.7h6.88a6.87,6.87 0 0 1 6.87,6.87v6.88h-13.75v-6.88a6.87,6.87 0 0 1 6.87,-6.87z" fill="#182026" />
  <path d="M78.29,130.7h13.75v13.75h-6.88a6.87,6.87 0 0 1 -6.87,-6.87v-0.01a6.87,6.87 0 0 1 6.87,-6.87z" fill="#182026" />
  <path d="M91.39,130.7h13.75v13.75h-13.75v-13.75z" fill="#182026" />
  <path d="M117.6,130.7h13.75v13.75h-13.75v-6.88a6.87,6.87 0 0 1 6.87,-6.87z" fill="#182026" />
  <path d="M130.7,130.7h13.75v13.75h-13.75v-13.75z" fill="#182026" />
  <path d="M156.91,130.7h13.75v13.75h-13.75v-13.75z" fill="#182026" />
  <path d="M183.12,130.7h13.75v13.75h-13.75v-13.75z" fill="#182026" />
  <path d="M196.22,130.7h13.75v13.75h-13.75v-13.75z" fill="#182026" />
  <path d="M209.32,130.7h13.75v13.75h-13.75v-13.75z" fill="#182026" />
  <path d="M222.43,130.7h13.75v13.75h-13.75v-13.75z" fill="#182026" />
  <path d="M235.53,130.7h13.75v13.75h-13.75v-13.75z" fill="#182026" />
  <path d="M261.74,130.7h13.75v6.88a6.87,6.87 0 0 1 -6.87,6.87h-0.01a6.87,6.87 0 0 1 -6.87,-6.87v-6.88z" fill="#182026" />
  <path d="M314.15,130.7h6.88a6.87,6.87 0 0 1 6.87,6.87v0.01a6.87,6.87 0 0 1 -6.87,6.87h-0.01a6.87,6.87 0 0 1 -6.87,-6.87v-0.01a6.87,6.87 0 0 1 6.87,-6.87z" fill="#182026" />
  <path d="M340.36,130.7h6.88a6.87,6.87 0 0 1 6.87,6.87v0.01a6.87,6.87 0 0 1 -6.87,6.87h-0.01a6.87,6.87 0 0 1 -6.87,-6.87v-0.01a6.87,6.87 0 0 1 6.87,-6.87z" fill="#182026" />
  <path d="M366.56,130.7h6.88a6.87,6.87 0 0 1 6.87,6.87v6.88h-13.75v-6.88a6.87,6.87 0 0 1 6.87,-6.87z" fill="#182026" />
  <path d="M-0.33,143.81h13.75v13.75h-6.88a6.87,6.87 0 0 1 -6.87,-6.87v-6.88z" fill="#182026" />
  <path d="M12.77,143.81h6.88a6.87,6.87 0 0 1 6.87,6.87v0.01a6.87,6.87 0 0 1 -6.87,6.87h-6.88v-13.75z" fill="#182026" />
  <path d="M38.98,143.81h13.75v13.75h-6.88a6.87,6.87 0 0 1 -6.87,-6.87v-0.01a6.87,6.87 0 0 1 6.87,-6.87z" fill="#182026" />
  <path d="M52.08,143.81h13.75v13.75h-13.75v-13.75z" fill="#182026" />
  <path d="M91.39,143.81h13.75v6.88a6.87,6.87 0 0 1 -6.87,6.87h-0.01a6.87,6.87 0 0 1 -6.87,-6.87v-6.88z" fill="#182026" />
  <path d="M117.6,143.81h13.75v13.75h-13.75v-13.75z" fill="#182026" />
  <path d="M130.7,143.81h13.75v13.75h-13.75v-13.75z" fill="#182026" />
  <path d="M143.81,143.81h13.75v13.75h-13.75v-13.75z" fill="#182026" />
  <path d="M156.91,143.81h13.75v13.75h-13.75v-13.75z" fill="#182026" />
  <path d="M170.01,143.81h13.75v13.75h-13.75v-13.75z" fill="#182026" />
  <path d="M183.12,143.81h13.75v13.75h-13.75v-13.75z" fill="#182026" />
  <path d="M235.53,143.81h13.75v13.75h-13.75v-13.75z" fill="#182026" />
  <path d="M274.84,143.81h13.75v13.75h-6.88a6.87,6.87 0 0 1 -6.87,-6.87v-0.01a6.87,6.87 0 0 1 6.87,-6.87z" fill="#182026" />
  <path d="M287.94,143.81h13.75v13.75h-13.75v-13.75z" fill="#182026" />
  <path d="M301.05,143.81h6.88a6.87,6.87 0 0 1 6.87,6.87v6.88h-13.75v-13.75z" fill="#182026" />
  <path d="M327.25,143.81h6.88a6.87,6.87 0 0 1 6.87,6.87v6.88h-13.75v-6.88a6.87,6.87 0 0 1 6.87,-6.87z" fill="#182026" />
  <path d="M353.46,143.81h13.75v13.75h-6.88a6.87,6.87 0 0 1 -6.87,-6.87v-0.01a6.87,6.87 0 0 1 6.87,-6.87z" fill="#182026" />
  <path d="M366.56,143.81h13.75v6.88a6.87,6.87 0 0 1 -6.87,6.87h-6.88v-13.75z" fill="#182026" />
  <path d="M25.87,156.91h6.88a6.87,6.87 0 0 1 6.87,6.87v0.01a6.87,6.87 0 0 1 -6.87,6.87h-0.01a6.87,6.87 0 0 1 -6.87,-6.87v-0.01a6.87,6.87 0 0 1 6.87,-6.87z" fill="#182026" />
  <path d="M52.08,156.91h13.75v13.75h-13.75v-13.75z" fill="#182026" />
  <path d="M65.18,156.91h13.75v13.75h-13.75v-13.75z" fill="#182026" />
  <path d="M78.29,156.91h6.88a6.87,6.87 0 0 1 6.87,6.87v0.01a6.87,6.87 0 0 1 -6.87,6.87h-6.88v-13.75z" fill="#182026" />
  <path d="M117.6,156.91h13.75v6.88a6.87,6.87 0 0 1 -6.87,6.87h-0.01a6.87,6.87 0 0 1 -6.87,-6.87v-6.88z" fill="#182026" />
  <path d="M183.12,156.91h13.75v13.75h-13.75v-13.75z" fill="#182026" />
  <path d="M235.53,156.91h13.75v13.75h-13.75v-13.75z" fill="#182026" />
  <path d="M261.74,156.91h6.88a6.87,6.87 0 0 1 6.87,6.87v0.01a6.87,6.87 0 0 1 -6.87,6.87h-0.01a6.87,6.87 0 0 1 -6.87,-6.87v-0.01a6.87,6.87 0 0 1 6.87,-6.87z" fill="#182026" />
  <path d="M301.05,156.91h13.75v13.75h-13.75v-13.75z" fill="#182026" />
  <path d="M327.25,156.91h13.75v13.75h-13.75v-13.75z" fill="#182026" />
  <path d="M340.36,156.91h6.88a6.87,6.87 0 0 1 6.87,6.87v6.88h-13.75v-13.75z" fill="#182026" />
  <path d="M-0.33,170.01h6.88a6.87,6.87 0 0 1 6.87,6.87v6.88h-13.75v-6.88a6.87,6.87 0 0 1 6.87,-6.87z" fill="#182026" />
  <path d="M52.08,170.01h13.75v13.75h-13.75v-13.75z" fill="#182026" />
  <path d="M65.18,170.01h13.75v13.75h-13.75v-13.75z" fill="#182026" />
  <path d="M91.39,170.01h6.88a6.87,6.87 0 0 1 6.87,6.87v0.01a6.87,6.87 0 0 1 -6.87,6.87h-0.01a6.87,6.87 0 0 1 -6.87,-6.87v-0.01a6.87,6.87 0 0 1 6.87,-6.87z" fill="#182026" />
  <path d="M156.91,170.01h13.75v13.75h-13.75v-6.88a6.87,6.87 0 0 1 6.87,-6.87z" fill="#182026" />
  <path d="M170.01,170.01h13.75v13.75h-13.75v-13.75z" fill="#182026" />
  <path d="M183.12,170.01h13.75v13.75h-13.75v-13.75z" fill="#182026" />
  <path d="M196.22,170.01h6.88a6.87,6.87 0 0 1 6.87,6.87v6.88h-13.75v-13.75z" fill="#182026" />
  <path d="M235.53,170.01h13.75v13.75h-13.75v-13.75z" fill="#182026" />
  <path d="M274.84,170.01h13.75v13.75h-6.88a6.87,6.87 0 0 1 -6.87,-6.87v-0.01a6.87,6.87 0 0 1 6.87,-6.87z" fill="#182026" />
  <path d="M287.94,170.01h13.75v13.75h-13.75v-13.75z" fill="#182026" />
  <path d="M301.05,170.01h13.75v13.75h-13.75v-13.75z" fill="#182026" />
  <path d="M314.15,170.01h13.75v13.75h-13.75v-13.75z" fill="#182026" />
  <path d="M327.25,170.01h13.75v13.75h-13.75v-13.75z" fill="#182026" />
  <path d="M340.36,170.01h13.75v13.75h-13.75v-13.75z" fill="#182026" />
  <path d="M366.56,170.01h6.88a6.87,6.87 0 0 1 6.87,6.87v0.01a6.87,6.87 0 0 1 -6.87,6.87h-0.01a6.87,6.87 0 0 1 -6.87,-6.87v-0.01a6.87,6.87 0 0 1 6.87,-6.87z" fill="#182026" />
  <path d="M-0.33,183.12h13.75v13.75h-13.75v-13.75z" fill="#182026" />
  <path d="M25.87,183.12h13.75v13.75h-6.88a6.87,6.87 0 0 1 -6.87,-6.87v-0.01a6.87,6.87 0 0 1 6.87,-6.87z" fill="#182026" />
  <path d="M38.98,183.12h13.75v13.75h-13.75v-13.75z" fill="#182026" />
  <path d="M52.08,183.12h13.75v13.75h-13.75v-13.75z" fill="#182026" />
  <path d="M65.18,183.12h13.75v13.75h-13.75v-13.75z" fill="#182026" />
  <path d="M78.29,183.12h6.88a6.87,6.87 0 0 1 6.87,6.87v0.01a6.87,6.87 0 0 1 -6.87,6.87h-6.88v-13.75z" fill="#182026" />
  <path d="M104.5,183.12h13.75v13.75h-13.75v-6.88a6.87,6.87 0 0 1 6.87,-6.87z" fill="#182026" />
  <path d="M117.6,183.12h6.88a6.87,6.87 0 0 1 6.87,6.87v0.01a6.87,6.87 0 0 1 -6.87,6.87h-6.88v-13.75z" fill="#182026" />
  <path d="M143.81,183.12h13.75v13.75h-13.75v-6.88a6.87,6.87 0 0 1 6.87,-6.87z" fill="#182026" />
  <path d="M156.91,183.12h13.75v13.75h-13.75v-13.75z" fill="#182026" />
  <path d="M170.01,183.12h13.75v13.75h-13.75v-13.75z" fill="#182026" />
  <path d="M183.12,183.12h13.75v13.75h-13.75v-13.75z" fill="#182026" />
  <path d="M196.22,183.12h13.75v13.75h-13.75v-13.75z" fill="#182026" />
  <path d="M209.32,183.12h6.88a6.87,6.87 0 0 1 6.87,6.87v6.88h-13.75v-13.75z" fill="#182026" />
  <path d="M235.53,183.12h13.75v13.75h-6.88a6.87,6.87 0 0 1 -6.87,-6.87v-6.88z" fill="#182026" />
  <path d="M248.63,183.12h6.88a6.87,6.87 0 0 1 6.87,6.87v6.88h-13.75v-13.75z" fill="#182026" />
  <path d="M287.94,183.12h13.75v13.75h-13.75v-13.75z" fill="#182026" />
  <path d="M340.36,183.12h13.75v13.75h-13.75v-13.75z" fill="#182026" />
  <path d="M-0.33,196.22h13.75v13.75h-6.88a6.87,6.87 0 0 1 -6.87,-6.87v-6.88z" fill="#182026" />
  <path d="M12.77,196.22h6.88a6.87,6.87 0 0 1 6.87,6.87v0.01a6.87,6.87 0 0 1 -6.87,6.87h-6.88v-13.75z" fill="#182026" />
  <path d="M38.98,196.22h13.75v13.75h-6.88a6.87,6.87 0 0 1 -6.87,-6.87v-6.88z" fill="#182026" />
  <path d="M52.08,196.22h13.75v6.88a6.87,6.87 0 0 1 -6.87,6.87h-6.88v-13.75z" fill="#182026" />
  <path d="M104.5,196.22h13.75v6.88a6.87,6.87 0 0 1 -6.87,6.87h-0.01a6.87,6.87 0 0 1 -6.87,-6.87v-6.88z" fill="#182026" />
  <path d="M143.81,196.22h13.75v13.75h-13.75v-13.75z" fill="#182026" />
  <path d="M183.12,196.22h13.75v13.75h-13.75v-13.75z" fill="#182026" />
  <path d="M209.32,196.22h13.75v6.88a6.87,6.87 0 0 1 -6.87,6.87h-0.01a6.87,6.87 0 0 1 -6.87,-6.87v-6.88z" fill="#182026" />
  <path d="M248.63,196.22h13.75v13.75h-13.75v-13.75z" fill="#182026" />
  <path d="M287.94,196.22h13.75v13.75h-6.88a6.87,6.87 0 0 1 -6.87,-6.87v-6.88z" fill="#182026" />
  <path d="M301.05,196.22h13.75v13.75h-13.75v-13.75z" fill="#182026" />
  <path d="M314.15,196.22h13.75v13.75h-13.75v-13.75z" fill="#182026" />
  <path d="M327.25,196.22h13.75v13.75h-13.75v-13.75z" fill="#182026" />
  <path d="M340.36,196.22h13.75v13.75h-13.75v-13.75z" fill="#182026" />
  <path d="M366.56,196.22h6.88a6.87,6.87 0 0 1 6.87,6.87v6.88h-13.75v-6.88a6.87,6.87 0 0 1 6.87,-6.87z" fill="#182026" />
  <path d="M25.87,209.32h6.88a6.87,6.87 0 0 1 6.87,6.87v0.01a6.87,6.87 0 0 1 -6.87,6.87h-0.01a6.87,6.87 0 0 1 -6.87,-6.87v-0.01a6.87,6.87 0 0 1 6.87,-6.87z" fill="#182026" />
  <path d="M65.18,209.32h13.75v13.75h-13.75v-6.88a6.87,6.87 0 0 1 6.87,-6.87z" fill="#182026" />
  <path d="M78.29,209.32h6.88a6.87,6.87 0 0 1 6.87,6.87v0.01a6.87,6.87 0 0 1 -6.87,6.87h-6.88v-13.75z" fill="#182026" />
  <path d="M143.81,209.32h13.75v6.88a6.87,6.87 0 0 1 -6.87,6.87h-0.01a6.87,6.87 0 0 1 -6.87,-6.87v-6.88z" fill="#182026" />
  <path d="M183.12,209.32h13.75v13.75h-6.88a6.87,6.87 0 0 1 -6.87,-6.87v-6.88z" fill="#182026" />
  <path d="M196.22,209.32h6.88a6.87,6.87 0 0 1 6.87,6.87v0.01a6.87,6.87 0 0 1 -6.87,6.87h-6.88v-13.75z" fill="#182026" />
  <path d="M222.43,209.32h13.75v13.75h-13.75v-6.88a6.87,6.87 0 0 1 6.87,-6.87z" fill="#182026" />
  <path d="M235.53,209.32h13.75v13.75h-13.75v-13.75z" fill="#182026" />
  <path d="M248.63,209.32h13.75v6.88a6.87,6.87 0 0 1 -6.87,6.87h-6.88v-13.75z" fill="#182026" />
  <path d="M274.84,209.32h6.88a6.87,6.87 0 0 1 6.87,6.87v6.88h-13.75v-6.88a6.87,6.87 0 0 1 6.87,-6.87z" fill="#182026" />
  <path d="M327.25,209.32h13.75v13.75h-13.75v-13.75z" fill="#182026" />
  <path d="M340.36,209.32h13.75v13.75h-13.75v-13.75z" fill="#182026" />
  <path d="M353.46,209.32h13.75v13.75h-13.75v-13.75z" fill="#182026" />
  <path d="M366.56,209.32h13.75v13.75h-13.75v-13.75z" fill="#182026" />
  <path d="M12.77,222.43h6.88a6.87,6.87 0 0 1 6.87,6.87v0.01a6.87,6.87 0 0 1 -6.87,6.87h-0.01a6.87,6.87 0 0 1 -6.87,-6.87v-0.01a6.87,6.87 0 0 1 6.87,-6.87z" fill="#182026" />
  <path d="M38.98,222.43h13.75v13.75h-13.75v-6.88a6.87,6.87 0 0 1 6.87,-6.87z" fill="#182026" />
  <path d="M52.08,222.43h13.75v13.75h-13.75v-13.75z" fill="#182026" />
  <path d="M65.18,222.43h13.75v6.88a6.87,6.87 0 0 1 -6.87,6.87h-6.88v-13.75z" fill="#182026" />
  <path d="M104.5,222.43h6.88a6.87,6.87 0 0 1 6.87,6.87v0.01a6.87,6.87 0 0 1 -6.87,6.87h-0.01a6.87,6.87 0 0 1 -6.87,-6.87v-0.01a6.87,6.87 0 0 1 6.87,-6.87z" fill="#182026" />
  <path d="M130.7,222.43h6.88a6.87,6.87 0 0 1 6.87,6.87v6.88h-13.75v-6.88a6.87,6.87 0 0 1 6.87,-6.87z" fill="#182026" />
  <path d="M209.32,222.43h13.75v13.75h-6.88a6.87,6.87 0 0 1 -6.87,-6.87v-0.01a6.87,6.87 0 0 1 6.87,-6.87z" fill="#182026" />
  <path d="M222.43,222.43h13.75v13.75h-13.75v-13.75z" fill="#182026" />
  <path d="M235.53,222.43h13.75v13.75h-13.75v-13.75z" fill="#182026" />
  <path d="M261.74,222.43h13.75v13.75h-6.88a6.87,6.87 0 0 1 -6.87,-6.87v-0.01a6.87,6.87 0 0 1 6.87,-6.87z" fill="#182026" />
  <path d="M274.84,222.43h13.75v6.88a6.87,6.87 0 0 1 -6.87,6.87h-6.88v-13.75z" fill="#182026" />
  <path d="M327.25,222.43h13.75v13.75h-13.75v-13.75z" fill="#182026" />
  <path d="M366.56,222.43h13.75v6.88a6.87,6.87 0 0 1 -6.87,6.87h-0.01a6.87,6.87 0 0 1 -6.87,-6.87v-6.88z" fill="#182026" />
  <path d="M-0.33,235.53h6.88a6.87,6.87 0 0 1 6.87,6.87v0.01a6.87,6.87 0 0 1 -6.87,6.87h-0.01a6.87,6.87 0 0 1 -6.87,-6.87v-0.01a6.87,6.87 0 0 1 6.87,-6.87z" fill="#182026" />
  <path d="M25.87,235.53h13.75v13.75h-6.88a6.87,6.87 0 0 1 -6.87,-6.87v-0.01a6.87,6.87 0 0 1 6.87,-6.87z" fill="#182026" />
  <path d="M38.98,235.53h13.75v13.75h-13.75v-13.75z" fill="#182026" />
  <path d="M52.08,235.53h13.75v13.75h-13.75v-13.75z" fill="#182026" />
  <path d="M78.29,235.53h6.88a6.87,6.87 0 0 1 6.87,6.87v0.01a6.87,6.87 0 0 1 -6.87,6.87h-0.01a6.87,6.87 0 0 1 -6.87,-6.87v-0.01a6.87,6.87 0 0 1 6.87,-6.87z" fill="#182026" />
  <path d="M130.7,235.53h13.75v6.88a6.87,6.87 0 0 1 -6.87,6.87h-0.01a6.87,6.87 0 0 1 -6.87,-6.87v-6.88z" fill="#182026" />
  <path d="M170.01,235.53h6.88a6.87,6.87 0 0 1 6.87,6.87v6.88h-13.75v-6.88a6.87,6.87 0 0 1 6.87,-6.87z" fill="#182026" />
  <path d="M235.53,235.53h13.75v13.75h-13.75v-13.75z" fill="#182026" />
  <path d="M248.63,235.53h6.88a6.87,6.87 0 0 1 6.87,6.87v0.01a6.87,6.87 0 0 1 -6.87,6.87h-6.88v-13.75z" fill="#182026" />
  <path d="M287.94,235.53h6.88a6.87,6.87 0 0 1 6.87,6.87v6.88h-13.75v-6.88a6.87,6.87 0 0 1 6.87,-6.87z" fill="#182026" />
  <path d="M314.15,235.53h13.75v13.75h-13.75v-6.88a6.87,6.87 0 0 1 6.87,-6.87z" fill="#182026" />
  <path d="M327.25,235.53h13.75v13.75h-13.75v-13.75z" fill="#182026" />
  <path d="M38.98,248.63h13.75v13.75h-13.75v-13.75z" fill="#182026" />
  <path d="M52.08,248.63h13.75v13.75h-13.75v-13.75z" fill="#182026" />
  <path d="M91.39,248.63h6.88a6.87,6.87 0 0 1 6.87,6.87v6.88h-13.75v-6.88a6.87,6.87 0 0 1 6.87,-6.87z" fill="#182026" />
  <path d="M117.6,248.63h6.88a6.87,6.87 0 0 1 6.87,6.87v0.01a6.87,6.87 0 0 1 -6.87,6.87h-0.01a6.87,6.87 0 0 1 -6.87,-6.87v-0.01a6.87,6.87 0 0 1 6.87,-6.87z" fill="#182026" />
  <path d="M156.91,248.63h13.75v13.75h-13.75v-6.88a6.87,6.87 0 0 1 6.87,-6.87z" fill="#182026" />
  <path d="M170.01,248.63h13.75v13.75h-13.75v-13.75z" fill="#182026" />
  <path d="M196.22,248.63h13.75v13.75h-6.88a6.87,6.87 0 0 1 -6.87,-6.87v-0.01a6.87,6.87 0 0 1 6.87,-6.87z" fill="#182026" />
  <path d="M209.32,248.63h13.75v13.75h-13.75v-13.75z" fill="#182026" />
  <path d="M222.43,248.63h13.75v13.75h-13.75v-13.75z" fill="#182026" />
  <path d="M235.53,248.63h13.75v6.88a6.87,6.87 0 0 1 -6.87,6.87h-6.88v-13.75z" fill="#182026" />
  <path d="M261.74,248.63h6.88a6.87,6.87 0 0 1 6.87,6.87v6.88h-13.75v-6.88a6.87,6.87 0 0 1 6.87,-6.87z" fill="#182026" />
  <path d="M287.94,248.63h13.75v13.75h-13.75v-13.75z" fill="#182026" />
  <path d="M301.05,248.63h13.75v13.75h-13.75v-13.75z" fill="#182026" />
  <path d="M314.15,248.63h13.75v13.75h-13.75v-13.75z" fill="#182026" />
  <path d="M327.25,248.63h13.75v13.75h-13.75v-13.75z" fill="#182026" />
  <path d="M340.36,248.63h6.88a6.87,6.87 0 0 1 6.87,6.87v6.88h-13.75v-13.75z" fill="#182026" />
  <path d="M366.56,248.63h6.88a6.87,6.87 0 0 1 6.87,6.87v0.01a6.87,6.87 0 0 1 -6.87,6.87h-0.01a6.87,6.87 0 0 1 -6.87,-6.87v-0.01a6.87,6.87 0 0 1 6.87,-6.87z" fill="#182026" />
  <path d="M12.77,261.74h6.88a6.87,6.87 0 0 1 6.87,6.87v0.01a6.87,6.87 0 0 1 -6.87,6.87h-0.01a6.87,6.87 0 0 1 -6.87,-6.87v-0.01a6.87,6.87 0 0 1 6.87,-6.87z" fill="#182026" />
  <path d="M38.98,261.74h13.75v13.75h-6.88a6.87,6.87 0 0 1 -6.87,-6.87v-6.88z" fill="#182026" />
  <path d="M52.08,261.74h13.75v6.88a6.87,6.87 0 0 1 -6.87,6.87h-6.88v-13.75z" fill="#182026" />
  <path d="M78.29,261.74h13.75v13.75h-6.88a6.87,6.87 0 0 1 -6.87,-6.87v-0.01a6.87,6.87 0 0 1 6.87,-6.87z" fill="#182026" />
  <path d="M91.39,261.74h13.75v13.75h-13.75v-13.75z" fill="#182026" />
  <path d="M104.5,261.74h6.88a6.87,6.87 0 0 1 6.87,6.87v6.88h-13.75v-13.75z" fill="#182026" />
  <path d="M130.7,261.74h6.88a6.87,6.87 0 0 1 6.87,6.87v0.01a6.87,6.87 0 0 1 -6.87,6.87h-0.01a6.87,6.87 0 0 1 -6.87,-6.87v-0.01a6.87,6.87 0 0 1 6.87,-6.87z" fill="#182026" />
  <path d="M156.91,261.74h13.75v13.75h-6.88a6.87,6.87 0 0 1 -6.87,-6.87v-6.88z" fill="#182026" />
  <path d="M170.01,261.74h13.75v13.75h-13.75v-13.75z" fill="#182026" />
  <path d="M183.12,261.74h6.88a6.87,6.87 0 0 1 6.87,6.87v6.88h-13.75v-13.75z" fill="#182026" />
  <path d="M248.63,261.74h13.75v13.75h-6.88a6.87,6.87 0 0 1 -6.87,-6.87v-0.01a6.87,6.87 0 0 1 6.87,-6.87z" fill="#182026" />
  <path d="M261.74,261.74h13.75v13.75h-13.75v-13.75z" fill="#182026" />
  <path d="M274.84,261.74h13.75v13.75h-13.75v-13.75z" fill="#182026" />
  <path d="M287.94,261.74h13.75v13.75h-13.75v-13.75z" fill="#182026" />
  <path d="M301.05,261.74h13.75v13.75h-13.75v-13.75z" fill="#182026" />
  <path d="M314.15,261.74h13.75v13.75h-13.75v-13.75z" fill="#182026" />
  <path d="M327.25,261.74h13.75v13.75h-13.75v-13.75z" fill="#182026" />
  <path d="M340.36,261.74h13.75v13.75h-13.75v-13.75z" fill="#182026" />
  <path d="M104.5,274.84h13.75v13.75h-13.75v-13.75z" fill="#182026" />
  <path d="M117.6,274.84h6.88a6.87,6.87 0 0 1 6.87,6.87v0.01a6.87,6.87 0 0 1 -6.87,6.87h-6.88v-13.75z" fill="#182026" />
  <path d="M143.81,274.84h6.88a6.87,6.87 0 0 1 6.87,6.87v0.01a6.87,6.87 0 0 1 -6.87,6.87h-0.01a6.87,6.87 0 0 1 -6.87,-6.87v-0.01a6.87,6.87 0 0 1 6.87,-6.87z" fill="#182026" />
  <path d="M183.12,274.84h13.75v6.88a6.87,6.87 0 0 1 -6.87,6.87h-0.01a6.87,6.87 0 0 1 -6.87,-6.87v-6.88z" fill="#182026" />
  <path d="M209.32,274.84h6.88a6.87,6.87 0 0 1 6.87,6.87v0.01a6.87,6.87 0 0 1 -6.87,6.87h-0.01a6.87,6.87 0 0 1 -6.87,-6.87v-0.01a6.87,6.87 0 0 1 6.87,-6.87z" fill="#182026" />
  <path d="M261.74,274.84h13.75v13.75h-13.75v-13.75z" fill="#182026" />
  <path d="M314.15,274.84h13.75v13.75h-13.75v-13.75z" fill="#182026" />
  <path d="M327.25,274.84h13.75v13.75h-13.75v-13.75z" fill="#182026" />
  <path d="M340.36,274.84h13.75v13.75h-13.75v-13.75z" fill="#182026" />
  <path d="M104.5,287.94h13.75v6.88a6.87,6.87 0 0 1 -6.87,6.87h-0.01a6.87,6.87 0 0 1 -6.87,-6.87v-6.88z" fill="#182026" />
  <path d="M156.91,287.94h13.75v13.75h-13.75v-6.88a6.87,6.87 0 0 1 6.87,-6.87z" fill="#182026" />
  <path d="M170.01,287.94h6.88a6.87,6.87 0 0 1 6.87,6.87v6.88h-13.75v-13.75z" fill="#182026" />
  <path d="M222.43,287.94h6.88a6.87,6.87 0 0 1 6.87,6.87v6.88h-13.75v-6.88a6.87,6.87 0 0 1 6.87,-6.87z" fill="#182026" />
  <path d="M248.63,287.94h13.75v13.75h-6.88a6.87,6.87 0 0 1 -6.87,-6.87v-0.01a6.87,6.87 0 0 1 6.87,-6.87z" fill="#182026" />
  <path d="M261.74,287.94h13.75v13.75h-13.75v-13.75z" fill="#182026" />
  <path d="M287.94,287.94h6.88a6.87,6.87 0 0 1 6.87,6.87v0.01a6.87,6.87 0 0 1 -6.87,6.87h-0.01a6.87,6.87 0 0 1 -6.87,-6.87v-0.01a6.87,6.87 0 0 1 6.87,-6.87z" fill="#182026" />
  <path d="M314.15,287.94h13.75v13.75h-13.75v-13.75z" fill="#182026" />
  <path d="M340.36,287.94h13.75v13.75h-13.75v-13.75z" fill="#182026" />
  <path d="M353.46,287.94h13.75v13.75h-13.75v-13.75z" fill="#182026" />
  <path d="M366.56,287.94h6.88a6.87,6.87 0 0 1 6.87,6.87v6.88h-13.75v-13.75z" fill="#182026" />
  <path d="M117.6,301.05h6.88a6.87,6.87 0 0 1 6.87,6.87v6.88h-13.75v-6.88a6.87,6.87 0 0 1 6.87,-6.87z" fill="#182026" />
  <path d="M156.91,301.05h13.75v13.75h-6.88a6.87,6.87 0 0 1 -6.87,-6.87v-6.88z" fill="#182026" />
  <path d="M170.01,301.05h13.75v13.75h-13.75v-13.75z" fill="#182026" />
  <path d="M196.22,301.05h13.75v13.75h-13.75v-6.88a6.87,6.87 0 0 1 6.87,-6.87z" fill="#182026" />
  <path d="M209.32,301.05h13.75v13.75h-13.75v-13.75z" fill="#182026" />
  <path d="M222.43,301.05h13.75v13.75h-13.75v-13.75z" fill="#182026" />
  <path d="M261.74,301.05h13.75v13.75h-13.75v-13.75z" fill="#182026" />
  <path d="M314.15,301.05h13.75v13.75h-13.75v-13.75z" fill="#182026" />
  <path d="M340.36,301.05h13.75v13.75h-13.75v-13.75z" fill="#182026" />
  <path d="M353.46,301.05h13.75v13.75h-13.75v-13.75z" fill="#182026" />
  <path d="M366.56,301.05h13.75v13.75h-13.75v-13.75z" fill="#182026" />
  <path d="M117.6,314.15h13.75v13.75h-6.88a6.87,6.87 0 0 1 -6.87,-6.87v-6.88z" fill="#182026" />
  <path d="M130.7,314.15h6.88a6.87,6.87 0 0 1 6.87,6.87v0.01a6.87,6.87 0 0 1 -6.87,6.87h-6.88v-13.75z" fill="#182026" />
  <path d="M170.01,314.15h13.75v13.75h-6.88a6.87,6.87 0 0 1 -6.87,-6.87v-6.88z" fill="#182026" />
  <path d="M183.12,314.15h13.75v13.75h-13.75v-13.75z" fill="#182026" />
  <path d="M196.22,314.15h13.75v6.88a6.87,6.87 0 0 1 -6.87,6.87h-6.88v-13.75z" fill="#182026" />
  <path d="M222.43,314.15h13.75v13.75h-6.88a6.87,6.87 0 0 1 -6.87,-6.87v-6.88z" fill="#182026" />
  <path d="M235.53,314.15h6.88a6.87,6.87 0 0 1 6.87,6.87v6.88h-13.75v-13.75z" fill="#182026" />
  <path d="M261.74,314.15h13.75v13.75h-6.88a6.87,6.87 0 0 1 -6.87,-6.87v-6.88z" fill="#182026" />
  <path d="M274.84,314.15h13.75v13.75h-13.75v-13.75z" fill="#182026" />
  <path d="M287.94,314.15h13.75v13.75h-13.75v-13.75z" fill="#182026" />
  <path d="M301.05,314.15h13.75v13.75h-13.75v-13.75z" fill="#182026" />
  <path d="M314.15,314.15h13.75v13.75h-13.75v-13.75z" fill="#182026" />
  <path d="M340.36,314.15h13.75v13.75h-13.75v-13.75z" fill="#182026" />
  <path d="M366.56,314.15h13.75v6.88a6.87,6.87 0 0 1 -6.87,6.87h-0.01a6.87,6.87 0 0 1 -6.87,-6.87v-6.88z" fill="#182026" />
  <path d="M104.5,327.25h6.88a6.87,6.87 0 0 1 6.87,6.87v6.88h-13.75v-6.88a6.87,6.87 0 0 1 6.87,-6.87z" fill="#182026" />
  <path d="M143.81,327.25h6.88a6.87,6.87 0 0 1 6.87,6.87v0.01a6.87,6.87 0 0 1 -6.87,6.87h-0.01a6.87,6.87 0 0 1 -6.87,-6.87v-0.01a6.87,6.87 0 0 1 6.87,-6.87z" fill="#182026" />
  <path d="M183.12,327.25h13.75v13.75h-13.75v-13.75z" fill="#182026" />
  <path d="M209.32,327.25h6.88a6.87,6.87 0 0 1 6.87,6.87v6.88h-13.75v-6.88a6.87,6.87 0 0 1 6.87,-6.87z" fill="#182026" />
  <path d="M235.53,327.25h13.75v6.88a6.87,6.87 0 0 1 -6.87,6.87h-0.01a6.87,6.87 0 0 1 -6.87,-6.87v-6.88z" fill="#182026" />
  <path d="M274.84,327.25h13.75v13.75h-6.88a6.87,6.87 0 0 1 -6.87,-6.87v-6.88z" fill="#182026" />
  <path d="M287.94,327.25h13.75v13.75h-13.75v-13.75z" fill="#182026" />
  <path d="M314.15,327.25h13.75v13.75h-6.88a6.87,6.87 0 0 1 -6.87,-6.87v-6.88z" fill="#182026" />
  <path d="M327.25,327.25h13.75v13.75h-13.75v-13.75z" fill="#182026" />
  <path d="M340.36,327.25h13.75v13.75h-13.75v-13.75z" fill="#182026" />
  <path d="M353.46,327.25h6.88a6.87,6.87 0 0 1 6.87,6.87v6.88h-13.75v-13.75z" fill="#182026" />
  <path d="M104.5,340.36h13.75v13.75h-13.75v-13.75z" fill="#182026" />
  <path d="M117.6,340.36h6.88a6.87,6.87 0 0 1 6.87,6.87v6.88h-13.75v-13.75z" fill="#182026" />
  <path d="M183.12,340.36h13.75v13.75h-6.88a6.87,6.87 0 0 1 -6.87,-6.87v-6.88z" fill="#182026" />
  <path d="M196.22,340.36h13.75v13.75h-13.75v-13.75z" fill="#182026" />
  <path d="M209.32,340.36h13.75v13.75h-13.75v-13.75z" fill="#182026" />
  <path d="M222.43,340.36h6.88a6.87,6.87 0 0 1 6.87,6.87v6.88h-13.75v-13.75z" fill="#182026" />
  <path d="M261.74,340.36h6.88a6.87,6.87 0 0 1 6.87,6.87v6.88h-13.75v-6.88a6.87,6.87 0 0 1 6.87,-6.87z" fill="#182026" />
  <path d="M287.94,340.36h13.75v6.88a6.87,6.87 0 0 1 -6.87,6.87h-0.01a6.87,6.87 0 0 1 -6.87,-6.87v-6.88z" fill="#182026" />
  <path d="M327.25,340.36h13.75v13.75h-13.75v-13.75z" fill="#182026" />
  <path d="M340.36,340.36h13.75v13.75h-13.75v-13.75z" fill="#182026" />
  <path d="M353.46,340.36h13.75v13.75h-13.75v-13.75z" fill="#182026" />
  <path d="M366.56,340.36h6.88a6.87,6.87 0 0 1 6.87,6.87v0.01a6.87,6.87 0 0 1 -6.87,6.87h-6.88v-13.75z" fill="#182026" />
  <path d="M104.5,353.46h13.75v13.75h-6.88a6.87,6.87 0 0 1 -6.87,-6.87v-6.88z" fill="#182026" />
  <path d="M117.6,353.46h13.75v6.88a6.87,6.87 0 0 1 -6.87,6.87h-6.88v-13.75z" fill="#182026" />
  <path d="M170.01,353.46h6.88a6.87,6.87 0 0 1 6.87,6.87v6.88h-13.75v-6.88a6.87,6.87 0 0 1 6.87,-6.87z" fill="#182026" />
  <path d="M222.43,353.46h13.75v13.75h-13.75v-13.75z" fill="#182026" />
  <path d="M261.74,353.46h13.75v13.75h-13.75v-13.75z" fill="#182026" />
  <path d="M301.05,353.46h6.88a6.87,6.87 0 0 1 6.87,6.87v6.88h-13.75v-6.88a6.87,6.87 0 0 1 6.87,-6.87z" fill="#182026" />
  <path d="M327.25,353.46h13.75v13.75h-6.88a6.87,6.87 0 0 1 -6.87,-6.87v-6.88z" fill="#182026" />
  <path d="M340.36,353.46h13.75v6.88a6.87,6.87 0 0 1 -6.87,6.87h-6.88v-13.75z" fill="#182026" />
  <path d="M156.91,366.56h13.75v13.75h-6.88a6.87,6.87 0 0 1 -6.87,-6.87v-0.01a6.87,6.87 0 0 1 6.87,-6.87z" fill="#182026" />
  <path d="M170.01,366.56h13.75v6.88a6.87,6.87 0 0 1 -6.87,6.87h-6.88v-13.75z" fill="#182026" />
  <path d="M196.22,366.56h6.88a6.87,6.87 0 0 1 6.87,6.87v0.01a6.87,6.87 0 0 1 -6.87,6.87h-0.01a6.87,6.87 0 0 1 -6.87,-6.87v-0.01a6.87,6.87 0 0 1 6.87,-6.87z" fill="#182026" />
  <path d="M222.43,366.56h13.75v13.75h-6.88a6.87,6.87 0 0 1 -6.87,-6.87v-6.88z" fill="#182026" />
  <path d="M235.53,366.56h6.88a6.87,6.87 0 0 1 6.87,6.87v0.01a6.87,6.87 0 0 1 -6.87,6.87h-6.88v-13.75z" fill="#182026" />
  <path d="M261.74,366.56h13.75v6.88a6.87,6.87 0 0 1 -6.87,6.87h-0.01a6.87,6.87 0 0 1 -6.87,-6.87v-6.88z" fill="#182026" />
  <path d="M301.05,366.56h13.75v6.88a6.87,6.87 0 0 1 -6.87,6.87h-0.01a6.87,6.87 0 0 1 -6.87,-6.87v-6.88z" fill="#182026" />
  <path d="M353.46,366.56h6.88a6.87,6.87 0 0 1 6.87,6.87v0.01a6.87,6.87 0 0 1 -6.87,6.87h-0.01a6.87,6.87 0 0 1 -6.87,-6.87v-0.01a6.87,6.87 0 0 1 6.87,-6.87z" fill="#182026" />
<circle cx="45.862068965517246" cy="45.862068965517246" r="39.310344827586206" stroke="#182026" stroke-width="13.10344827586207" fill="none" /><circle cx="45.862068965517246" cy="45.862068965517246" r="13.10344827586207" stroke="#182026" stroke-width="13.10344827586207" fill="#182026" /><circle cx="334.13793103448273" cy="45.862068965517246" r="39.310344827586206" stroke="#182026" stroke-width="13.10344827586207" fill="none" /><circle cx="334.13793103448273" cy="45.862068965517246" r="13.10344827586207" stroke="#182026" stroke-width="13.10344827586207" fill="#182026" /><circle cx="45.862068965517246" cy="334.13793103448273" r="39.310344827586206" stroke="#182026" stroke-width="13.10344827586207" fill="none" /><circle cx="45.862068965517246" cy="334.13793103448273" r="13.10344827586207" stroke="#182026" stroke-width="13.10344827586207" fill="#182026" /></svg>