<?xml version="1.0" standalone="yes"?>
<svg xmlns="http://www.w3.org/2000/svg" version="1.1" width="300" height="300">
  <path d="M82.5,-0.26h10.86v10.86h-7.06a3.8,3.8 0 0 1 -3.8,-3.8v-3.26a3.8,3.8 0 0 1 3.8,-3.8z" fill="#182026" />
  <path d="M92.84,-0.26h10.86v10.86h-10.86v-10.86z" fill="#182026" />
  <path d="M103.18,-0.26h10.86v10.86h-10.86v-10.86z" fill="#182026" />
  <path d="M113.53,-0.26h10.86v10.86h-10.86v-10.86z" fill="#182026" />
  <path d="M123.87,-0.26h10.86v10.86h-10.86v-10.86z" fill="#182026" />
  <path d="M134.22,-0.26h7.06a3.8,3.8 0 0 1 3.8,3.8v7.06h-10.86v-10.86z" fill="#182026" />
  <path d="M154.91,-0.26h7.06a3.8,3.8 0 0 1 3.8,3.8v7.06h-10.86v-7.06a3.8,3.8 0 0 1 3.8,-3.8z" fill="#182026" />
  <path d="M175.6,-0.26h10.86v10.86h-7.06a3.8,3.8 0 0 1 -3.8,-3.8v-3.26a3.8,3.8 0 0 1 3.8,-3.8z" fill="#182026" />
  <path d="M185.94,-0.26h10.86v10.86h-10.86v-10.86z" fill="#182026" />
  <path d="M196.29,-0.26h10.86v10.86h-10.86v-10.86z" fill="#182026" />
  <path d="M206.63,-0.26h7.06a3.8,3.8 0 0 1 3.8,3.8v3.26a3.8,3.8 0 0 1 -3.8,3.8h-7.06v-10.86z" fill="#182026" />
  <path d="M113.53,10.08h10.86v10.86h-7.06a3.8,3.8 0 0 1 -3.8,-3.8v-7.06z" fill="#182026" />
  <path d="M123.87,10.08h10.86v10.86h-10.86v-10.86z" fill="#182026" />
  <path d="M134.22,10.08h10.86v7.06a3.8,3.8 0 0 1 -3.8,3.8h-7.06v-10.86z" fill="#182026" />
  <path d="M154.91,10.08h10.86v7.06a3.8,3.8 0 0 1 -3.8,3.8h-3.26a3.8,3.8 0 0 1 -3.8,-3.8v-7.06z" fill="#182026" />
  <path d="M185.94,10.08h10.86v7.06a3.8,3.8 0 0 1 -3.8,3.8h-3.26a3.8,3.8 0 0 1 -3.8,-3.8v-7.06z" fill="#182026" />
  <path d="M92.84,20.43h7.06a3.8,3.8 0 0 1 3.8,3.8v3.26a3.8,3.8 0 0 1 -3.8,3.8h-3.26a3.8,3.8 0 0 1 -3.8,-3.8v-3.26a3.8,3.8 0 0 1 3.8,-3.8z" fill="#182026" />
  <path d="M144.56,20.43h7.06a3.8,3.8 0 0 1 3.8,3.8v7.06h-10.86v-7.06a3.8,3.8 0 0 1 3.8,-3.8z" fill="#182026" />
  <path d="M175.6,20.43h7.06a3.8,3.8 0 0 1 3.8,3.8v3.26a3.8,3.8 0 0 1 -3.8,3.8h-3.26a3.8,3.8 0 0 1 -3.8,-3.8v-3.26a3.8,3.8 0 0 1 3.8,-3.8z" fill="#182026" />
  <path d="M196.29,20.43h10.86v10.86h-7.06a3.8,3.8 0 0 1 -3.8,-3.8v-3.26a3.8,3.8 0 0 1 3.8,-3.8z" fill="#182026" />
  <path d="M206.63,20.43h7.06a3.8,3.8 0 0 1 3.8,3.8v3.26a3.8,3.8 0 0 1 -3.8,3.8h-7.06v-10.86z" fill="#182026" />
  <path d="M103.18,30.77h10.86v10.86h-7.06a3.8,3.8 0 0 1 -3.8,-3.8v-3.26a3.8,3.8 0 0 1 3.8,-3.8z" fill="#182026" />
  <path d="M113.53,30.77h7.06a3.8,3.8 0 0 1 3.8,3.8v7.06h-10.86v-10.86z" fill="#182026" />
  <path d="M134.22,30.77h10.86v10.86h-7.06a3.8,3.8 0 0 1 -3.8,-3.8v-3.26a3.8,3.8 0 0 1 3.8,-3.8z" fill="#182026" />
  <path d="M144.56,30.77h10.86v7.06a3.8,3.8 0 0 1 -3.8,3.8h-7.06v-10.86z" fill="#182026" />
  <path d="M165.25,30.77h7.06a3.8,3.8 0 0 1 3.8,3.8v7.06h-10.86v-7.06a3.8,3.8 0 0 1 3.8,-3.8z" fill="#182026" />
  <path d="M185.94,30.77h7.06a3.8,3.8 0 0 1 3.8,3.8v7.06h-10.86v-7.06a3.8,3.8 0 0 1 3.8,-3.8z" fill="#182026" />
  <path d="M92.84,41.12h7.06a3.8,3.8 0 0 1 3.8,3.8v7.06h-10.86v-7.06a3.8,3.8 0 0 1 3.8,-3.8z" fill="#182026" />
  <path d="M113.53,41.12h10.86v10.86h-7.06a3.8,3.8 0 0 1 -3.8,-3.8v-7.06z" fill="#182026" />
  <path d="M123.87,41.12h7.06a3.8,3.8 0 0 1 3.8,3.8v7.06h-10.86v-10.86z" fill="#182026" />
  <path d="M154.91,41.12h10.86v10.86h-10.86v-7.06a3.8,3.8 0 0 1 3.8,-3.8z" fill="#182026" />
  <path d="M165.25,41.12h10.86v7.06a3.8,3.8 0 0 1 -3.8,3.8h-7.06v-10.86z" fill="#182026" />
  <path d="M185.94,41.12h10.86v10.86h-10.86v-10.86z" fill="#182026" />
  <path d="M206.63,41.12h7.06a3.8,3.8 0 0 1 3.8,3.8v7.06h-10.86v-7.06a3.8,3.8 0 0 1 3.8,-3.8z" fill="#182026" />
  <path d="M92.84,51.46h10.86v7.06a3.8,3.8 0 0 1 -3.8,3.8h-3.26a3.8,3.8 0 0 1 -3.8,-3.8v-7.06z" fill="#182026" />
  <path d="M123.87,51.46h10.86v10.86h-10.86v-10.86z" fill="#182026" />
  <path d="M144.56,51.46h10.86v10.86h-10.86v-7.06a3.8,3.8 0 0 1 3.8,-3.8z" fill="#182026" />
  <path d="M154.91,51.46h10.86v7.06a3.8,3.8 0 0 1 -3.8,3.8h-7.06v-10.86z" fill="#182026" />
  <path d="M175.6,51.46h10.86v10.86h-7.06a3.8,3.8 0 0 1 -3.8,-3.8v-3.26a3.8,3.8 0 0 1 3.8,-3.8z" fill="#182026" />
  <path d="M185.94,51.46h10.86v10.86h-10.86v-10.86z" fill="#182026" />
  <path d="M206.63,51.46h10.86v10.86h-10.86v-10.86z" fill="#182026" />
  <path d="M82.5,61.81h7.06a3.8,3.8 0 0 1 3.8,3.8v3.26a3.8,3.8 0 0 1 -3.8,3.8h-3.26a3.8,3.8 0 0 1 -3.8,-3.8v-3.26a3.8,3.8 0 0 1 3.8,-3.8z" fill="#182026" />
  <path d="M103.18,61.81h7.06a3.8,3.8 0 0 1 3.8,3.8v7.06h-10.86v-7.06a3.8,3.8 0 0 1 3.8,-3.8z" fill="#182026" />
  <path d="M123.87,61.81h10.86v7.06a3.8,3.8 0 0 1 -3.8,3.8h-3.26a3.8,3.8 0 0 1 -3.8,-3.8v-7.06z" fill="#182026" />
  <path d="M144.56,61.81h10.86v10.86h-10.86v-10.86z" fill="#182026" />
  <path d="M165.25,61.81h7.06a3.8,3.8 0 0 1 3.8,3.8v7.06h-10.86v-7.06a3.8,3.8 0 0 1 3.8,-3.8z" fill="#182026" />
  <path d="M185.94,61.81h10.86v7.06a3.8,3.8 0 0 1 -3.8,3.8h-3.26a3.8,3.8 0 0 1 -3.8,-3.8v-7.06z" fill="#182026" />
  <path d="M206.63,61.81h10.86v7.06a3.8,3.8 0 0 1 -3.8,3.8h-3.26a3.8,3.8 0 0 1 -3.8,-3.8v-7.06z" fill="#182026" />
  <path d="M92.84,72.15h10.86v10.86h-10.86v-7.06a3.8,3.8 0 0 1 3.8,-3.8z" fill="#182026" />
  <path d="M103.18,72.15h10.86v7.06a3.8,3.8 0 0 1 -3.8,3.8h-7.06v-10.86z" fill="#182026" />
  <path d="M134.22,72.15h10.86v10.86h-7.06a3.8,3.8 0 0 1 -3.8,-3.8v-3.26a3.8,3.8 0 0 1 3.8,-3.8z" fill="#182026" />
  <path d="M144.56,72.15h10.86v10.86h-10.86v-10.86z" fill="#182026" />
  <path d="M154.91,72.15h10.86v10.86h-10.86v-10.86z" fill="#182026" />
  <path d="M165.25,72.15h10.86v10.86h-10.86v-10.86z" fill="#182026" />
  <path d="M175.6,72.15h7.06a3.8,3.8 0 0 1 3.8,3.8v3.26a3.8,3.8 0 0 1 -3.8,3.8h-7.06v-10.86z" fill="#182026" />
  <path d="M10.08,82.5h10.86v10.86h-7.06a3.8,3.8 0 0 1 -3.8,-3.8v-3.26a3.8,3.8 0 0 1 3.8,-3.8z" fill="#182026" />
  <path d="M20.43,82.5h10.86v10.86h-10.86v-10.86z" fill="#182026" />
  <path d="M30.77,82.5h7.06a3.8,3.8 0 0 1 3.8,3.8v7.06h-10.86v-10.86z" fill="#182026" />
  <path d="M61.81,82.5h10.86v10.86h-7.06a3.8,3.8 0 0 1 -3.8,-3.8v-3.26a3.8,3.8 0 0 1 3.8,-3.8z" fill="#182026" />
  <path d="M72.15,82.5h10.86v10.86h-10.86v-10.86z" fill="#182026" />
  <path d="M82.5,82.5h10.86v10.86h-10.86v-10.86z" fill="#182026" />
  <path d="M92.84,82.5h10.86v7.06a3.8,3.8 0 0 1 -3.8,3.8h-7.06v-10.86z" fill="#182026" />
  <path d="M113.53,82.5h10.86v10.86h-7.06a3.8,3.8 0 0 1 -3.8,-3.8v-3.26a3.8,3.8 0 0 1 3.8,-3.8z" fill="#182026" />
  <path d="M123.87,82.5h7.06a3.8,3.8 0 0 1 3.8,3.8v7.06h-10.86v-10.86z" fill="#182026" />
  <path d="M144.56,82.5h10.86v10.86h-10.86v-10.86z" fill="#182026" />
  <path d="M154.91,82.5h10.86v10.86h-10.86v-10.86z" fill="#182026" />
  <path d="M165.25,82.5h10.86v10.86h-10.86v-10.86z" fill="#182026" />
  <path d="M185.94,82.5h7.06a3.8,3.8 0 0 1 3.8,3.8v7.06h-10.86v-7.06a3.8,3.8 0 0 1 3.8,-3.8z" fill="#182026" />
  <path d="M216.98,82.5h7.06a3.8,3.8 0 0 1 3.8,3.8v7.06h-10.86v-7.06a3.8,3.8 0 0 1 3.8,-3.8z" fill="#182026" />
  <path d="M289.39,82.5h7.06a3.8,3.8 0 0 1 3.8,3.8v3.26a3.8,3.8 0 0 1 -3.8,3.8h-3.26a3.8,3.8 0 0 1 -3.8,-3.8v-3.26a3.8,3.8 0 0 1 3.8,-3.8z" fill="#182026" />
  <path d="M-0.26,92.84h7.06a3.8,3.8 0 0 1 3.8,3.8v7.06h-10.86v-7.06a3.8,3.8 0 0 1 3.8,-3.8z" fill="#182026" />
  <path d="M30.77,92.84h10.86v7.06a3.8,3.8 0 0 1 -3.8,3.8h-3.26a3.8,3.8 0 0 1 -3.8,-3.8v-7.06z" fill="#182026" />
  <path d="M72.15,92.84h10.86v10.86h-10.86v-10.86z" fill="#182026" />
  <path d="M103.18,92.84h7.06a3.8,3.8 0 0 1 3.8,3.8v7.06h-10.86v-7.06a3.8,3.8 0 0 1 3.8,-3.8z" fill="#182026" />
  <path d="M123.87,92.84h10.86v10.86h-10.86v-10.86z" fill="#182026" />
  <path d="M134.22,92.84h10.86v10.86h-10.86v-10.86z" fill="#182026" />
  <path d="M144.56,92.84h10.86v10.86h-10.86v-10.86z" fill="#182026" />
  <path d="M165.25,92.84h10.86v10.86h-10.86v-10.86z" fill="#182026" />
  <path d="M185.94,92.84h10.86v10.86h-10.86v-10.86z" fill="#182026" />
  <path d="M196.29,92.84h10.86v10.86h-10.86v-10.86z" fill="#182026" />
  <path d="M206.63,92.84h10.86v10.86h-10.86v-10.86z" fill="#182026" />
  <path d="M216.98,92.84h10.86v10.86h-10.86v-10.86z" fill="#182026" />
  <path d="M227.32,92.84h10.86v10.86h-10.86v-10.86z" fill="#182026" />
  <path d="M237.67,92.84h7.06a3.8,3.8 0 0 1 3.8,3.8v3.26a3.8,3.8 0 0 1 -3.8,3.8h-7.06v-10.86z" fill="#182026" />
  <path d="M-0.26,103.18h10.86v10.86h-10.86v-10.86z" fill="#182026" />
  <path d="M41.12,103.18h7.06a3.8,3.8 0 0 1 3.8,3.8v7.06h-10.86v-7.06a3.8,3.8 0 0 1 3.8,-3.8z" fill="#182026" />
  <path d="M61.81,103.18h10.86v10.86h-7.06a3.8,3.8 0 0 1 -3.8,-3.8v-3.26a3.8,3.8 0 0 1 3.8,-3.8z" fill="#182026" />
  <path d="M72.15,103.18h10.86v10.86h-10.86v-10.86z" fill="#182026" />
  <path d="M92.84,103.18h10.86v10.86h-10.86v-7.06a3.8,3.8 0 0 1 3.8,-3.8z" fill="#182026" />
  <path d="M103.18,103.18h10.86v10.86h-10.86v-10.86z" fill="#182026" />
  <path d="M123.87,103.18h10.86v10.86h-10.86v-10.86z" fill="#182026" />
  <path d="M144.56,103.18h10.86v10.86h-10.86v-10.86z" fill="#182026" />
  <path d="M154.91,103.18h10.86v10.86h-10.86v-10.86z" fill="#182026" />
  <path d="M165.25,103.18h10.86v10.86h-10.86v-10.86z" fill="#182026" />
  <path d="M175.6,103.18h10.86v10.86h-10.86v-10.86z" fill="#182026" />
  <path d="M185.94,103.18h10.86v10.86h-10.86v-10.86z" fill="#182026" />
  <path d="M206.63,103.18h10.86v7.06a3.8,3.8 0 0 1 -3.8,3.8h-3.26a3.8,3.8 0 0 1 -3.8,-3.8v-7.06z" fill="#182026" />
  <path d="M248.01,103.18h7.06a3.8,3.8 0 0 1 3.8,3.8v3.26a3.8,3.8 0 0 1 -3.8,3.8h-3.26a3.8,3.8 0 0 1 -3.8,-3.8v-3.26a3.8,3.8 0 0 1 3.8,-3.8z" fill="#182026" />
  <path d="M268.7,103.18h7.06a3.8,3.8 0 0 1 3.8,3.8v3.26a3.8,3.8 0 0 1 -3.8,3.8h-3.26a3.8,3.8 0 0 1 -3.8,-3.8v-3.26a3.8,3.8 0 0 1 3.8,-3.8z" fill="#182026" />
  <path d="M289.39,103.18h7.06a3.8,3.8 0 0 1 3.8,3.8v7.06h-10.86v-7.06a3.8,3.8 0 0 1 3.8,-3.8z" fill="#182026" />
  <path d="M-0.26,113.53h10.86v10.86h-7.06a3.8,3.8 0 0 1 -3.8,-3.8v-7.06z" fill="#182026" />
  <path d="M10.08,113.53h7.06a3.8,3.8 0 0 1 3.8,3.8v3.26a3.8,3.8 0 0 1 -3.8,3.8h-7.06v-10.86z" fill="#182026" />
  <path d="M30.77,113.53h10.86v10.86h-7.06a3.8,3.8 0 0 1 -3.8,-3.8v-3.26a3.8,3.8 0 0 1 3.8,-3.8z" fill="#182026" />
  <path d="M41.12,113.53h10.86v10.86h-10.86v-10.86z" fill="#182026" />
  <path d="M72.15,113.53h10.86v7.06a3.8,3.8 0 0 1 -3.8,3.8h-3.26a3.8,3.8 0 0 1 -3.8,-3.8v-7.06z" fill="#182026" />
  <path d="M92.84,113.53h10.86v10.86h-10.86v-10.86z" fill="#182026" />
  <path d="M103.18,113.53h10.86v10.86h-10.86v-10.86z" fill="#182026" />
  <path d="M113.53,113.53h10.86v10.86h-10.86v-10.86z" fill="#182026" />
  <path d="M123.87,113.53h10.86v10.86h-10.86v-10.86z" fill="#182026" />
  <path d="M134.22,113.53h10.86v10.86h-10.86v-10.86z" fill="#182026" />
  <path d="M144.56,113.53h10.86v10.86h-10.86v-10.86z" fill="#182026" />
  <path d="M185.94,113.53h10.86v10.86h-10.86v-10.86z" fill="#182026" />
  <path d="M216.98,113.53h10.86v10.86h-7.06a3.8,3.8 0 0 1 -3.8,-3.8v-3.26a3.8,3.8 0 0 1 3.8,-3.8z" fill="#182026" />
  <path d="M227.32,113.53h10.86v10.86h-10.86v-10.86z" fill="#182026" />
  <path d="M237.67,113.53h7.06a3.8,3.8 0 0 1 3.8,3.8v7.06h-10.86v-10.86z" fill="#182026" />
  <path d="M258.36,113.53h7.06a3.8,3.8 0 0 1 3.8,3.8v7.06h-10.86v-7.06a3.8,3.8 0 0 1 3.8,-3.8z" fill="#182026" />
  <path d="M279.05,113.53h10.86v10.86h-7.06a3.8,3.8 0 0 1 -3.8,-3.8v-3.26a3.8,3.8 0 0 1 3.8,-3.8z" fill="#182026" />
  <path d="M289.39,113.53h10.86v7.06a3.8,3.8 0 0 1 -3.8,3.8h-7.06v-10.86z" fill="#182026" />
  <path d="M20.43,123.87h7.06a3.8,3.8 0 0 1 3.8,3.8v3.26a3.8,3.8 0 0 1 -3.8,3.8h-3.26a3.8,3.8 0 0 1 -3.8,-3.8v-3.26a3.8,3.8 0 0 1 3.8,-3.8z" fill="#182026" />
  <path d="M41.12,123.87h10.86v10.86h-10.86v-10.86z" fill="#182026" />
  <path d="M51.46,123.87h10.86v10.86h-10.86v-10.86z" fill="#182026" />
  <path d="M61.81,123.87h7.06a3.8,3.8 0 0 1 3.8,3.8v3.26a3.8,3.8 0 0 1 -3.8,3.8h-7.06v-10.86z" fill="#182026" />
  <path d="M92.84,123.87h10.86v7.06a3.8,3.8 0 0 1 -3.8,3.8h-3.26a3.8,3.8 0 0 1 -3.8,-3.8v-7.06z" fill="#182026" />
  <path d="M144.56,123.87h10.86v10.86h-10.86v-10.86z" fill="#182026" />
  <path d="M185.94,123.87h10.86v10.86h-10.86v-10.86z" fill="#182026" />
  <path d="M206.63,123.87h7.06a3.8,3.8 0 0 1 3.8,3.8v3.26a3.8,3.8 0 0 1 -3.8,3.8h-3.26a3.8,3.8 0 0 1 -3.8,-3.8v-3.26a3.8,3.8 0 0 1 3.8,-3.8z" fill="#182026" />
  <path d="M237.67,123.87h10.86v10.86h-10.86v-10.86z" fill="#182026" />
  <path d="M258.36,123.87h10.86v10.86h-10.86v-10.86z" fill="#182026" />
  <path d="M268.7,123.87h7.06a3.8,3.8 0 0 1 3.8,3.8v7.06h-10.86v-10.86z" fill="#182026" />
  <path d="M-0.26,134.22h7.06a3.8,3.8 0 0 1 3.8,3.8v7.06h-10.86v-7.06a3.8,3.8 0 0 1 3.8,-3.8z" fill="#182026" />
  <path d="M41.12,134.22h10.86v10.86h-10.86v-10.86z" fill="#182026" />
  <path d="M51.46,134.22h10.86v10.86h-10.86v-10.86z" fill="#182026" />
  <path d="M72.15,134.22h7.06a3.8,3.8 0 0 1 3.8,3.8v3.26a3.8,3.8 0 0 1 -3.8,3.8h-3.26a3.8,3.8 0 0 1 -3.8,-3.8v-3.26a3.8,3.8 0 0 1 3.8,-3.8z" fill="#182026" />
  <path d="M123.87,134.22h10.86v10.86h-10.86v-7.06a3.8,3.8 0 0 1 3.8,-3.8z" fill="#182026" />
  <path d="M134.22,134.22h10.86v10.86h-10.86v-10.86z" fill="#182026" />
  <path d="M144.56,134.22h10.86v10.86h-10.86v-10.86z" fill="#182026" />
  <path d="M154.91,134.22h7.06a3.8,3.8 0 0 1 3.8,3.8v7.06h-10.86v-10.86z" fill="#182026" />
  <path d="M185.94,134.22h10.86v10.86h-10.86v-10.86z" fill="#182026" />
  <path d="M216.98,134.22h10.86v10.86h-7.06a3.8,3.8 0 0 1 -3.8,-3.8v-3.26a3.8,3.8 0 0 1 3.8,-3.8z" fill="#182026" />
  <path d="M227.32,134.22h10.86v10.86h-10.86v-10.86z" fill="#182026" />
  <path d="M237.67,134.22h10.86v10.86h-10.86v-10.86z" fill="#182026" />
  <path d="M248.01,134.22h10.86v10.86h-10.86v-10.86z" fill="#182026" />
  <path d="M258.36,134.22h10.86v10.86h-10.86v-10.86z" fill="#182026" />
  <path d="M268.7,134.22h10.86v10.86h-10.86v-10.86z" fill="#182026" />
  <path d="M289.39,134.22h7.06a3.8,3.8 0 0 1 3.8,3.8v3.26a3.8,3.8 0 0 1 -3.8,3.8h-3.26a3.8,3.8 0 0 1 -3.8,-3.8v-3.26a3.8,3.8 0 0 1 3.8,-3.8z" fill="#182026" />
  <path d="M-0.26,144.56h10.86v10.86h-10.86v-10.86z" fill="#182026" />
  <path d="M20.43,144.56h10.86v10.86h-7.06a3.8,3.8 0 0 1 -3.8,-3.8v-3.26a3.8,3.8 0 0 1 3.8,-3.8z" fill="#182026" />
  <path d="M30.77,144.56h10.86v10.86h-10.86v-10.86z" fill="#182026" />
  <path d="M41.12,144.56h10.86v10.86h-10.86v-10.86z" fill="#182026" />
  <path d="M51.46,144.56h10.86v10.86h-10.86v-10.86z" fill="#182026" />
  <path d="M61.81,144.56h7.06a3.8,3.8 0 0 1 3.8,3.8v3.26a3.8,3.8 0 0 1 -3.8,3.8h-7.06v-10.86z" fill="#182026" />
  <path d="M82.5,144.56h10.86v10.86h-10.86v-7.06a3.8,3.8 0 0 1 3.8,-3.8z" fill="#182026" />
  <path d="M92.84,144.56h7.06a3.8,3.8 0 0 1 3.8,3.8v3.26a3.8,3.8 0 0 1 -3.8,3.8h-7.06v-10.86z" fill="#182026" />
  <path d="M113.53,144.56h10.86v10.86h-10.86v-7.06a3.8,3.8 0 0 1 3.8,-3.8z" fill="#182026" />
  <path d="M123.87,144.56h10.86v10.86h-10.86v-10.86z" fill="#182026" />
  <path d="M134.22,144.56h10.86v10.86h-10.86v-10.86z" fill="#182026" />
  <path d="M144.56,144.56h10.86v10.86h-10.86v-10.86z" fill="#182026" />
  <path d="M154.91,144.56h10.86v10.86h-10.86v-10.86z" fill="#182026" />
  <path d="M165.25,144.56h7.06a3.8,3.8 0 0 1 3.8,3.8v7.06h-10.86v-10.86z" fill="#182026" />
  <path d="M185.94,144.56h10.86v10.86h-7.06a3.8,3.8 0 0 1 -3.8,-3.8v-7.06z" fill="#182026" />
  <path d="M196.29,144.56h7.06a3.8,3.8 0 0 1 3.8,3.8v7.06h-10.86v-10.86z" fill="#182026" />
  <path d="M227.32,144.56h10.86v10.86h-10.86v-10.86z" fill="#182026" />
  <path d="M268.7,144.56h10.86v10.86h-10.86v-10.86z" fill="#182026" />
  <path d="M-0.26,154.91h10.86v10.86h-7.06a3.8,3.8 0 0 1 -3.8,-3.8v-7.06z" fill="#182026" />
  <path d="M10.08,154.91h7.06a3.8,3.8 0 0 1 3.8,3.8v3.26a3.8,3.8 0 0 1 -3.8,3.8h-7.06v-10.86z" fill="#182026" />
  <path d="M30.77,154.91h10.86v10.86h-7.06a3.8,3.8 0 0 1 -3.8,-3.8v-7.06z" fill="#182026" />
  <path d="M41.12,154.91h10.86v7.06a3.8,3.8 0 0 1 -3.8,3.8h-7.06v-10.86z" fill="#182026" />
  <path d="M82.5,154.91h10.86v7.06a3.8,3.8 0 0 1 -3.8,3.8h-3.26a3.8,3.8 0 0 1 -3.8,-3.8v-7.06z" fill="#182026" />
  <path d="M113.53,154.91h10.86v10.86h-10.86v-10.86z" fill="#182026" />
  <path d="M144.56,154.91h10.86v10.86h-10.86v-10.86z" fill="#182026" />
  <path d="M165.25,154.91h10.86v7.06a3.8,3.8 0 0 1 -3.8,3.8h-3.26a3.8,3.8 0 0 1 -3.8,-3.8v-7.06z" fill="#182026" />
  <path d="M196.29,154.91h10.86v10.86h-10.86v-10.86z" fill="#182026" />
  <path d="M227.32,154.91h10.86v10.86h-7.06a3.8,3.8 0 0 1 -3.8,-3.8v-7.06z" fill="#182026" />
  <path d="M237.67,154.91h10.86v10.86h-10.86v-10.86z" fill="#182026" />
  <path d="M248.01,154.91h10.86v10.86h-10.86v-10.86z" fill="#182026" />
  <path d="M258.36,154.91h10.86v10.86h-10.86v-10.86z" fill="#182026" />
  <path d="M268.7,154.91h10.86v10.86h-10.86v-10.86z" fill="#182026" />
  <path d="M289.39,154.91h7.06a3.8,3.8 0 0 1 3.8,3.8v7.06h-10.86v-7.06a3.8,3.8 0 0 1 3.8,-3.8z" fill="#182026" />
  <path d="M20.43,165.25h7.06a3.8,3.8 0 0 1 3.8,3.8v3.26a3.8,3.8 0 0 1 -3.8,3.8h-3.26a3.8,3.8 0 0 1 -3.8,-3.8v-3.26a3.8,3.8 0 0 1 3.8,-3.8z" fill="#182026" />
  <path d="M51.46,165.25h10.86v10.86h-10.86v-7.06a3.8,3.8 0 0 1 3.8,-3.8z" fill="#182026" />
  <path d="M61.81,165.25h7.06a3.8,3.8 0 0 1 3.8,3.8v3.26a3.8,3.8 0 0 1 -3.8,3.8h-7.06v-10.86z" fill="#182026" />
  <path d="M113.53,165.25h10.86v7.06a3.8,3.8 0 0 1 -3.8,3.8h-3.26a3.8,3.8 0 0 1 -3.8,-3.8v-7.06z" fill="#182026" />
  <path d="M144.56,165.25h10.86v10.86h-7.06a3.8,3.8 0 0 1 -3.8,-3.8v-7.06z" fill="#182026" />
  <path d="M154.91,165.25h7.06a3.8,3.8 0 0 1 3.8,3.8v3.26a3.8,3.8 0 0 1 -3.8,3.8h-7.06v-10.86z" fill="#182026" />
  <path d="M175.6,165.25h10.86v10.86h-10.86v-7.06a3.8,3.8 0 0 1 3.8,-3.8z" fill="#182026" />
  <path d="M185.94,165.25h10.86v10.86h-10.86v-10.86z" fill="#182026" />
  <path d="M196.29,165.25h10.86v7.06a3.8,3.8 0 0 1 -3.8,3.8h-7.06v-10.86z" fill="#182026" />
  <path d="M216.98,165.25h7.06a3.8,3.8 0 0 1 3.8,3.8v7.06h-10.86v-7.06a3.8,3.8 0 0 1 3.8,-3.8z" fill="#182026" />
  <path d="M258.36,165.25h10.86v10.86h-10.86v-10.86z" fill="#182026" />
  <path d="M268.7,165.25h10.86v10.86h-10.86v-10.86z" fill="#182026" />
  <path d="M279.05,165.25h10.86v10.86h-10.86v-10.86z" fill="#182026" />
  <path d="M289.39,165.25h10.86v10.86h-10.86v-10.86z" fill="#182026" />
  <path d="M10.08,175.6h7.06a3.8,3.8 0 0 1 3.8,3.8v3.26a3.8,3.8 0 0 1 -3.8,3.8h-3.26a3.8,3.8 0 0 1 -3.8,-3.8v-3.26a3.8,3.8 0 0 1 3.8,-3.8z" fill="#182026" />
  <path d="M30.77,175.6h10.86v10.86h-10.86v-7.06a3.8,3.8 0 0 1 3.8,-3.8z" fill="#182026" />
  <path d="M41.12,175.6h10.86v10.86h-10.86v-10.86z" fill="#182026" />
  <path d="M51.46,175.6h10.86v7.06a3.8,3.8 0 0 1 -3.8,3.8h-7.06v-10.86z" fill="#182026" />
  <path d="M82.5,175.6h7.06a3.8,3.8 0 0 1 3.8,3.8v3.26a3.8,3.8 0 0 1 -3.8,3.8h-3.26a3.8,3.8 0 0 1 -3.8,-3.8v-3.26a3.8,3.8 0 0 1 3.8,-3.8z" fill="#182026" />
  <path d="M103.18,175.6h7.06a3.8,3.8 0 0 1 3.8,3.8v7.06h-10.86v-7.06a3.8,3.8 0 0 1 3.8,-3.8z" fill="#182026" />
  <path d="M165.25,175.6h10.86v10.86h-7.06a3.8,3.8 0 0 1 -3.8,-3.8v-3.26a3.8,3.8 0 0 1 3.8,-3.8z" fill="#182026" />
  <path d="M175.6,175.6h10.86v10.86h-10.86v-10.86z" fill="#182026" />
  <path d="M185.94,175.6h10.86v10.86h-10.86v-10.86z" fill="#182026" />
  <path d="M206.63,175.6h10.86v10.86h-7.06a3.8,3.8 0 0 1 -3.8,-3.8v-3.26a3.8,3.8 0 0 1 3.8,-3.8z" fill="#182026" />
  <path d="M216.98,175.6h10.86v7.06a3.8,3.8 0 0 1 -3.8,3.8h-7.06v-10.86z" fill="#182026" />
  <path d="M258.36,175.6h10.86v10.86h-10.86v-10.86z" fill="#182026" />
  <path d="M289.39,175.6h10.86v7.06a3.8,3.8 0 0 1 -3.8,3.8h-3.26a3.8,3.8 0 0 1 -3.8,-3.8v-7.06z" fill="#182026" />
  <path d="M-0.26,185.94h7.06a3.8,3.8 0 0 1 3.8,3.8v3.26a3.8,3.8 0 0 1 -3.8,3.8h-3.26a3.8,3.8 0 0 1 -3.8,-3.8v-3.26a3.8,3.8 0 0 1 3.8,-3.8z" fill="#182026" />
  <path d="M20.43,185.94h10.86v10.86h-7.06a3.8,3.8 0 0 1 -3.8,-3.8v-3.26a3.8,3.8 0 0 1 3.8,-3.8z" fill="#182026" />
  <path d="M30.77,185.94h10.86v10.86h-10.86v-10.86z" fill="#182026" />
  <path d="M41.12,185.94h10.86v10.86h-10.86v-10.86z" fill="#182026" />
  <path d="M61.81,185.94h7.06a3.8,3.8 0 0 1 3.8,3.8v3.26a3.8,3.8 0 0 1 -3.8,3.8h-3.26a3.8,3.8 0 0 1 -3.8,-3.8v-3.26a3.8,3.8 0 0 1 3.8,-3.8z" fill="#182026" />
  <path d="M103.18,185.94h10.86v7.06a3.8,3.8 0 0 1 -3.8,3.8h-3.26a3.8,3.8 0 0 1 -3.8,-3.8v-7.06z" fill="#182026" />
  <path d="M134.22,185.94h7.06a3.8,3.8 0 0 1 3.8,3.8v7.06h-10.86v-7.06a3.8,3.8 0 0 1 3.8,-3.8z" fill="#182026" />
  <path d="M185.94,185.94h10.86v10.86h-10.86v-10.86z" fill="#182026" />
  <path d="M196.29,185.94h7.06a3.8,3.8 0 0 1 3.8,3.8v3.26a3.8,3.8 0 0 1 -3.8,3.8h-7.06v-10.86z" fill="#182026" />
  <path d="M227.32,185.94h7.06a3.8,3.8 0 0 1 3.8,3.8v7.06h-10.86v-7.06a3.8,3.8 0 0 1 3.8,-3.8z" fill="#182026" />
  <path d="M248.01,185.94h10.86v10.86h-10.86v-7.06a3.8,3.8 0 0 1 3.8,-3.8z" fill="#182026" />
  <path d="M258.36,185.94h10.86v10.86h-10.86v-10.86z" fill="#182026" />
  <path d="M30.77,196.29h10.86v10.86h-10.86v-10.86z" fill="#182026" />
  <path d="M41.12,196.29h10.86v10.86h-10.86v-10.86z" fill="#182026" />
  <path d="M72.15,196.29h7.06a3.8,3.8 0 0 1 3.8,3.8v7.06h-10.86v-7.06a3.8,3.8 0 0 1 3.8,-3.8z" fill="#182026" />
  <path d="M92.84,196.29h7.06a3.8,3.8 0 0 1 3.8,3.8v3.26a3.8,3.8 0 0 1 -3.8,3.8h-3.26a3.8,3.8 0 0 1 -3.8,-3.8v-3.26a3.8,3.8 0 0 1 3.8,-3.8z" fill="#182026" />
  <path d="M123.87,196.29h10.86v10.86h-10.86v-7.06a3.8,3.8 0 0 1 3.8,-3.8z" fill="#182026" />
  <path d="M134.22,196.29h10.86v10.86h-10.86v-10.86z" fill="#182026" />
  <path d="M154.91,196.29h10.86v10.86h-7.06a3.8,3.8 0 0 1 -3.8,-3.8v-3.26a3.8,3.8 0 0 1 3.8,-3.8z" fill="#182026" />
  <path d="M165.25,196.29h10.86v10.86h-10.86v-10.86z" fill="#182026" />
  <path d="M175.6,196.29h10.86v10.86h-10.86v-10.86z" fill="#182026" />
  <path d="M185.94,196.29h10.86v7.06a3.8,3.8 0 0 1 -3.8,3.8h-7.06v-10.86z" fill="#182026" />
  <path d="M206.63,196.29h7.06a3.8,3.8 0 0 1 3.8,3.8v7.06h-10.86v-7.06a3.8,3.8 0 0 1 3.8,-3.8z" fill="#182026" />
  <path d="M227.32,196.29h10.86v10.86h-10.86v-10.86z" fill="#182026" />
  <path d="M237.67,196.29h10.86v10.86h-10.86v-10.86z" fill="#182026" />
  <path d="M248.01,196.29h10.86v10.86h-10.86v-10.86z" fill="#182026" />
  <path d="M258.36,196.29h10.86v10.86h-10.86v-10.86z" fill="#182026" />
  <path d="M268.7,196.29h7.06a3.8,3.8 0 0 1 3.8,3.8v7.06h-10.86v-10.86z" fill="#182026" />
  <path d="M289.39,196.29h7.06a3.8,3.8 0 0 1 3.8,3.8v3.26a3.8,3.8 0 0 1 -3.8,3.8h-3.26a3.8,3.8 0 0 1 -3.8,-3.8v-3.26a3.8,3.8 0 0 1 3.8,-3.8z" fill="#182026" />
  <path d="M10.08,206.63h7.06a3.8,3.8 0 0 1 3.8,3.8v3.26a3.8,3.8 0 0 1 -3.8,3.8h-3.26a3.8,3.8 0 0 1 -3.8,-3.8v-3.26a3.8,3.8 0 0 1 3.8,-3.8z" fill="#182026" />
  <path d="M30.77,206.63h10.86v10.86h-7.06a3.8,3.8 0 0 1 -3.8,-3.8v-7.06z" fill="#182026" />
  <path d="M41.12,206.63h10.86v7.06a3.8,3.8 0 0 1 -3.8,3.8h-7.06v-10.86z" fill="#182026" />
  <path d="M61.81,206.63h10.86v10.86h-7.06a3.8,3.8 0 0 1 -3.8,-3.8v-3.26a3.8,3.8 0 0 1 3.8,-3.8z" fill="#182026" />
  <path d="M72.15,206.63h10.86v10.86h-10.86v-10.86z" fill="#182026" />
  <path d="M82.5,206.63h7.06a3.8,3.8 0 0 1 3.8,3.8v7.06h-10.86v-10.86z" fill="#182026" />
  <path d="M103.18,206.63h7.06a3.8,3.8 0 0 1 3.8,3.8v3.26a3.8,3.8 0 0 1 -3.8,3.8h-3.26a3.8,3.8 0 0 1 -3.8,-3.8v-3.26a3.8,3.8 0 0 1 3.8,-3.8z" fill="#182026" />
  <path d="M123.87,206.63h10.86v10.86h-7.06a3.8,3.8 0 0 1 -3.8,-3.8v-7.06z" fill="#182026" />
  <path d="M134.22,206.63h10.86v10.86h-10.86v-10.86z" fill="#182026" />
  <path d="M144.56,206.63h7.06a3.8,3.8 0 0 1 3.8,3.8v7.06h-10.86v-10.86z" fill="#182026" />
  <path d="M196.29,206.63h10.86v10.86h-7.06a3.8,3.8 0 0 1 -3.8,-3.8v-3.26a3.8,3.8 0 0 1 3.8,-3.8z" fill="#182026" />
  <path d="M206.63,206.63h10.86v10.86h-10.86v-10.86z" fill="#182026" />
  <path d="M216.98,206.63h10.86v10.86h-10.86v-10.86z" fill="#182026" />
  <path d="M227.32,206.63h10.86v10.86h-10.86v-10.86z" fill="#182026" />
  <path d="M237.67,206.63h10.86v10.86h-10.86v-10.86z" fill="#182026" />
  <path d="M248.01,206.63h10.86v10.86h-10.86v-10.86z" fill="#182026" />
  <path d="M258.36,206.63h10.86v10.86h-10.86v-10.86z" fill="#182026" />
  <path d="M268.7,206.63h10.86v10.86h-10.86v-10.86z" fill="#182026" />
  <path d="M82.5,216.98h10.86v10.86h-10.86v-10.86z" fill="#182026" />
  <path d="M92.84,216.98h7.06a3.8,3.8 0 0 1 3.8,3.8v3.26a3.8,3.8 0 0 1 -3.8,3.8h-7.06v-10.86z" fill="#182026" />
  <path d="M113.53,216.98h7.06a3.8,3.8 0 0 1 3.8,3.8v3.26a3.8,3.8 0 0 1 -3.8,3.8h-3.26a3.8,3.8 0 0 1 -3.8,-3.8v-3.26a3.8,3.8 0 0 1 3.8,-3.8z" fill="#182026" />
  <path d="M144.56,216.98h10.86v7.06a3.8,3.8 0 0 1 -3.8,3.8h-3.26a3.8,3.8 0 0 1 -3.8,-3.8v-7.06z" fill="#182026" />
  <path d="M165.25,216.98h7.06a3.8,3.8 0 0 1 3.8,3.8v3.26a3.8,3.8 0 0 1 -3.8,3.8h-3.26a3.8,3.8 0 0 1 -3.8,-3.8v-3.26a3.8,3.8 0 0 1 3.8,-3.8z" fill="#182026" />
  <path d="M206.63,216.98h10.86v10.86h-10.86v-10.86z" fill="#182026" />
  <path d="M248.01,216.98h10.86v10.86h-10.86v-10.86z" fill="#182026" />
  <path d="M258.36,216.98h10.86v10.86h-10.86v-10.86z" fill="#182026" />
  <path d="M268.7,216.98h10.86v10.86h-10.86v-10.86z" fill="#182026" />
  <path d="M82.5,227.32h10.86v7.06a3.8,3.8 0 0 1 -3.8,3.8h-3.26a3.8,3.8 0 0 1 -3.8,-3.8v-7.06z" fill="#182026" />
  <path d="M123.87,227.32h10.86v10.86h-10.86v-7.06a3.8,3.8 0 0 1 3.8,-3.8z" fill="#182026" />
  <path d="M134.22,227.32h7.06a3.8,3.8 0 0 1 3.8,3.8v7.06h-10.86v-10.86z" fill="#182026" />
  <path d="M175.6,227.32h7.06a3.8,3.8 0 0 1 3.8,3.8v7.06h-10.86v-7.06a3.8,3.8 0 0 1 3.8,-3.8z" fill="#182026" />
  <path d="M196.29,227.32h10.86v10.86h-7.06a3.8,3.8 0 0 1 -3.8,-3.8v-3.26a3.8,3.8 0 0 1 3.8,-3.8z" fill="#182026" />
  <path d="M206.63,227.32h10.86v10.86h-10.86v-10.86z" fill="#182026" />
  <path d="M227.32,227.32h7.06a3.8,3.8 0 0 1 3.8,3.8v3.26a3.8,3.8 0 0 1 -3.8,3.8h-3.26a3.8,3.8 0 0 1 -3.8,-3.8v-3.26a3.8,3.8 0 0 1 3.8,-3.8z" fill="#182026" />
  <path d="M248.01,227.32h10.86v10.86h-10.86v-10.86z" fill="#182026" />
  <path d="M268.7,227.32h10.86v10.86h-10.86v-10.86z" fill="#182026" />
  <path d="M279.05,227.32h10.86v10.86h-10.86v-10.86z" fill="#182026" />
  <path d="M289.39,227.32h7.06a3.8,3.8 0 0 1 3.8,3.8v7.06h-10.86v-10.86z" fill="#182026" />
  <path d="M92.84,237.67h7.06a3.8,3.8 0 0 1 3.8,3.8v7.06h-10.86v-7.06a3.8,3.8 0 0 1 3.8,-3.8z" fill="#182026" />
  <path d="M123.87,237.67h10.86v10.86h-7.06a3.8,3.8 0 0 1 -3.8,-3.8v-7.06z" fill="#182026" />
  <path d="M134.22,237.67h10.86v10.86h-10.86v-10.86z" fill="#182026" />
  <path d="M154.91,237.67h10.86v10.86h-10.86v-7.06a3.8,3.8 0 0 1 3.8,-3.8z" fill="#182026" />
  <path d="M165.25,237.67h10.86v10.86h-10.86v-10.86z" fill="#182026" />
  <path d="M175.6,237.67h10.86v10.86h-10.86v-10.86z" fill="#182026" />
  <path d="M206.63,237.67h10.86v10.86h-10.86v-10.86z" fill="#182026" />
  <path d="M248.01,237.67h10.86v10.86h-10.86v-10.86z" fill="#182026" />
  <path d="M268.7,237.67h10.86v10.86h-10.86v-10.86z" fill="#182026" />
  <path d="M279.05,237.67h10.86v10.86h-10.86v-10.86z" fill="#182026" />
  <path d="M289.39,237.67h10.86v10.86h-10.86v-10.86z" fill="#182026" />
  <path d="M92.84,248.01h10.86v10.86h-7.06a3.8,3.8 0 0 1 -3.8,-3.8v-7.06z" fill="#182026" />
  <path d="M103.18,248.01h7.06a3.8,3.8 0 0 1 3.8,3.8v3.26a3.8,3.8 0 0 1 -3.8,3.8h-7.06v-10.86z" fill="#182026" />
  <path d="M134.22,248.01h10.86v10.86h-7.06a3.8,3.8 0 0 1 -3.8,-3.8v-7.06z" fill="#182026" />
  <path d="M144.56,248.01h10.86v10.86h-10.86v-10.86z" fill="#182026" />
  <path d="M154.91,248.01h10.86v7.06a3.8,3.8 0 0 1 -3.8,3.8h-7.06v-10.86z" fill="#182026" />
  <path d="M175.6,248.01h10.86v10.86h-7.06a3.8,3.8 0 0 1 -3.8,-3.8v-7.06z" fill="#182026" />
  <path d="M185.94,248.01h7.06a3.8,3.8 0 0 1 3.8,3.8v7.06h-10.86v-10.86z" fill="#182026" />
  <path d="M206.63,248.01h10.86v10.86h-7.06a3.8,3.8 0 0 1 -3.8,-3.8v-7.06z" fill="#182026" />
  <path d="M216.98,248.01h10.86v10.86h-10.86v-10.86z" fill="#182026" />
  <path d="M227.32,248.01h10.86v10.86h-10.86v-10.86z" fill="#182026" />
  <path d="M237.67,248.01h10.86v10.86h-10.86v-10.86z" fill="#182026" />
  <path d="M248.01,248.01h10.86v10.86h-10.86v-10.86z" fill="#182026" />
  <path d="M268.7,248.01h10.86v10.86h-10.86v-10.86z" fill="#182026" />
  <path d="M289.39,248.01h10.86v7.06a3.8,3.8 0 0 1 -3.8,3.8h-3.26a3.8,3.8 0 0 1 -3.8,-3.8v-7.06z" fill="#182026" />
  <path d="M82.5,258.36h7.06a3.8,3.8 0 0 1 3.8,3.8v7.06h-10.86v-7.06a3.8,3.8 0 0 1 3.8,-3.8z" fill="#182026" />
  <path d="M113.53,258.36h7.06a3.8,3.8 0 0 1 3.8,3.8v3.26a3.8,3.8 0 0 1 -3.8,3.8h-3.26a3.8,3.8 0 0 1 -3.8,-3.8v-3.26a3.8,3.8 0 0 1 3.8,-3.8z" fill="#182026" />
  <path d="M144.56,258.36h10.86v10.86h-10.86v-10.86z" fill="#182026" />
  <path d="M165.25,258.36h7.06a3.8,3.8 0 0 1 3.8,3.8v7.06h-10.86v-7.06a3.8,3.8 0 0 1 3.8,-3.8z" fill="#182026" />
  <path d="M185.94,258.36h10.86v7.06a3.8,3.8 0 0 1 -3.8,3.8h-3.26a3.8,3.8 0 0 1 -3.8,-3.8v-7.06z" fill="#182026" />
  <path d="M216.98,258.36h10.86v10.86h-7.06a3.8,3.8 0 0 1 -3.8,-3.8v-7.06z" fill="#182026" />
  <path d="M227.32,258.36h10.86v10.86h-10.86v-10.86z" fill="#182026" />
  <path d="M248.01,258.36h10.86v10.86h-7.06a3.8,3.8 0 0 1 -3.8,-3.8v-7.06z" fill="#182026" />
  <path d="M258.36,258.36h10.86v10.86h-10.86v-10.86z" fill="#182026" />
  <path d="M268.7,258.36h10.86v10.86h-10.86v-10.86z" fill="#182026" />
  <path d="M279.05,258.36h7.06a3.8,3.8 0 0 1 3.8,3.8v7.06h-10.86v-10.86z" fill="#182026" />
  <path d="M82.5,268.7h10.86v10.86h-10.86v-10.86z" fill="#182026" />
  <path d="M92.84,268.7h7.06a3.8,3.8 0 0 1 3.8,3.8v7.06h-10.86v-10.86z" fill="#182026" />
  <path d="M144.56,268.7h10.86v10.86h-7.06a3.8,3.8 0 0 1 -3.8,-3.8v-7.06z" fill="#182026" />
  <path d="M154.91,268.7h10.86v10.86h-10.86v-10.86z" fill="#182026" />
  <path d="M165.25,268.7h10.86v10.86h-10.86v-10.86z" fill="#182026" />
  <path d="M175.6,268.7h7.06a3.8,3.8 0 0 1 3.8,3.8v7.06h-10.86v-10.86z" fill="#182026" />
  <path d="M206.63,268.7h7.06a3.8,3.8 0 0 1 3.8,3.8v7.06h-10.86v-7.06a3.8,3.8 0 0 1 3.8,-3.8z" fill="#182026" />
  <path d="M227.32,268.7h10.86v7.06a3.8,3.8 0 0 1 -3.8,3.8h-3.26a3.8,3.8 0 0 1 -3.8,-3.8v-7.06z" fill="#182026" />
  <path d="M258.36,268.7h10.86v10.86h-10.86v-10.86z" fill="#182026" />
  <path d="M268.7,268.7h10.86v10.86h-10.86v-10.86z" fill="#182026" />
  <path d="M279.05,268.7h10.86v10.86h-10.86v-10.86z" fill="#182026" />
  <path d="M289.39,268.7h7.06a3.8,3.8 0 0 1 3.8,3.8v3.26a3.8,3.8 0 0 1 -3.8,3.8h-7.06v-10.86z" fill="#182026" />
  <path d="M82.5,279.05h10.86v10.86h-7.06a3.8,3.8 0 0 1 -3.8,-3.8v-7.06z" fill="#182026" />
  <path d="M92.84,279.05h10.86v7.06a3.8,3.8 0 0 1 -3.8,3.8h-7.06v-10.86z" fill="#182026" />
  <path d="M134.22,279.05h7.06a3.8,3.8 0 0 1 3.8,3.8v7.06h-10.86v-7.06a3.8,3.8 0 0 1 3.8,-3.8z" fill="#182026" />
  <path d="M175.6,279.05h10.86v10.86h-10.86v-10.86z" fill="#182026" />
  <path d="M206.63,279.05h10.86v10.86h-10.86v-10.86z" fill="#182026" />
  <path d="M237.67,279.05h7.06a3.8,3.8 0 0 1 3.8,3.8v7.06h-10.86v-7.06a3.8,3.8 0 0 1 3.8,-3.8z" fill="#182026" />
  <path d="M258.36,279.05h10.86v10.86h-7.06a3.8,3.8 0 0 1 -3.8,-3.8v-7.06z" fill="#182026" />
  <path d="M268.7,279.05h10.86v7.06a3.8,3.8 0 0 1 -3.8,3.8h-7.06v-10.86z" fill="#182026" />
  <path d="M123.87,289.39h10.86v10.86h-7.06a3.8,3.8 0 0 1 -3.8,-3.8v-3.26a3.8,3.8 0 0 1 3.8,-3.8z" fill="#182026" />
  <path d="M134.22,289.39h10.86v7.06a3.8,3.8 0 0 1 -3.8,3.8h-7.06v-10.86z" fill="#182026" />
  <path d="M154.91,289.39h7.06a3.8,3.8 0 0 1 3.8,3.8v3.26a3.8,3.8 0 0 1 -3.8,3.8h-3.26a3.8,3.8 0 0 1 -3.8,-3.8v-3.26a3.8,3.8 0 0 1 3.8,-3.8z" fill="#182026" />
  <path d="M175.6,289.39h10.86v10.86h-7.06a3.8,3.8 0 0 1 -3.8,-3.8v-7.06z" fill="#182026" />
  <path d="M185.94,289.39h7.06a3.8,3.8 0 0 1 3.8,3.8v3.26a3.8,3.8 0 0 1 -3.8,3.8h-7.06v-10.86z" fill="#182026" />
  <path d="M206.63,289.39h10.86v7.06a3.8,3.8 0 0 1 -3.8,3.8h-3.26a3.8,3.8 0 0 1 -3.8,-3.8v-7.06z" fill="#182026" />
  <path d="M237.67,289.39h10.86v7.06a3.8,3.8 0 0 1 -3.8,3.8h-3.26a3.8,3.8 0 0 1 -3.8,-3.8v-7.06z" fill="#182026" />
  <path d="M279.05,289.39h7.06a3.8,3.8 0 0 1 3.8,3.8v3.26a3.8,3.8 0 0 1 -3.8,3.8h-3.26a3.8,3.8 0 0 1 -3.8,-3.8v-3.26a3.8,3.8 0 0 1 3.8,-3.8z" fill="#182026" />
<circle cx="36.20689655172414" cy="36.20689655172414" r="31.03448275862069" stroke="#182026" stroke-width="10.344827586206897" fill="none" /><circle cx="36.20689655172414" cy="36.20689655172414" r="10.344827586206897" stroke="#182026" stroke-width="10.344827586206897" fill="#182026" /><circle cx="263.7931034482759" cy="36.20689655172414" r="31.03448275862069" stroke="#182026" stroke-width="10.344827586206897" fill="none" /><circle cx="263.7931034482759" cy="36.20689655172414" r="10.344827586206897" stroke="#182026" stroke-width="10.344827586206897" fill="#182026" /><circle cx="36.20689655172414" cy="263.7931034482759" r="31.03448275862069" stroke="#182026" stroke-width="10.344827586206897" fill="none" /><circle cx="36.20689655172414" cy="263.7931034482759" r="10.344827586206897" stroke="#182026" stroke-width="10.344827586206897" fill="#182026" /></svg>